<svg xmlns="http://www.w3.org/2000/svg" xmlns:xlink="http://www.w3.org/1999/xlink" width="615.271" height="167.211" viewBox="0 0 615.271 167.211"><defs><clipPath id="a"><path d="M1163.332,2087.342a4.3,4.3,0,1,1-4.3,4.3,4.3,4.3,0,0,1,4.3-4.3m-33.209,31.679h66.419a1.062,1.062,0,0,0,1.057-1.151c-.533-6.308-5.415-12.351-12-12.351h-9.044v-6.367a2.854,2.854,0,0,0-2.845-2.845h-2.661v-3.267a7.736,7.736,0,0,0-7.713-7.713h0a7.736,7.736,0,0,0-7.713,7.713v3.267h-2.662a2.854,2.854,0,0,0-2.845,2.845v6.367h-9.044c-6.588,0-11.47,6.043-12,12.351a1.062,1.062,0,0,0,1.058,1.151Z" fill="#968073" clip-rule="evenodd"/></clipPath><clipPath id="b"><path d="M1163.332,2095.94a4.3,4.3,0,1,0-4.3-4.3,4.3,4.3,0,0,0,4.3,4.3m-33.209,22.379h66.419a.327.327,0,0,0,.264-.116.331.331,0,0,0,.094-.274c-.5-5.878-5.035-11.708-11.3-11.708h-9.746v-7.069a2.151,2.151,0,0,0-2.143-2.143h-3.363v-3.969a7.011,7.011,0,0,0-14.023,0v3.969h-3.364a2.152,2.152,0,0,0-2.143,2.143v7.069h-9.746c-6.269,0-10.807,5.83-11.3,11.708a.331.331,0,0,0,.094.274A.327.327,0,0,0,1130.123,2118.319Z" fill="none" clip-rule="evenodd"/></clipPath><clipPath id="c"><path d="M1163.332,2087.833a3.808,3.808,0,1,1-3.808,3.808,3.808,3.808,0,0,1,3.808-3.808m0-.491a4.3,4.3,0,1,1-4.3,4.3A4.3,4.3,0,0,1,1163.332,2087.342Z" fill="#968073" clip-rule="evenodd"/></clipPath></defs><g transform="translate(-480 -3342.789)"><g transform="translate(-2320.478 1342.576)"><path d="M2835.7,2167.424h580.048l-38.037-128.376c-4.9-21.808-26.464-35.582-47.93-30.608l-474.491,64.521c-21.466,4.974-35.023,26.887-30.127,48.7Z" fill="#fcf8f4"/></g><g transform="translate(-348.122 1257.462)"><rect width="95.701" height="53.08" transform="translate(1234.626 2133.316)" fill="#7f92b7"/><rect width="95.701" height="53.08" transform="translate(1234.626 2197.44)" fill="#7f92b7"/><rect width="82.437" height="11.044" transform="translate(1247.89 2186.396)" fill="#596277"/><rect width="101.688" height="5.255" transform="translate(1228.638 2133)" fill="#fff"/><g opacity="0.5"><rect width="10.602" height="16.734" transform="translate(1245.839 2152.368)" fill="#3064ad"/><path d="M1256.879,2169.641h-11.685v-17.817h11.68Zm-10.6-1.078h9.523v-15.656h-9.523Z" fill="#fff"/><rect width="9.793" height="0.809" transform="translate(1246.142 2157.964)" fill="#fff"/><rect width="9.793" height="0.809" transform="translate(1246.142 2163.533)" fill="#fff"/><rect width="0.809" height="16.813" transform="translate(1250.633 2152.289)" fill="#fff"/><rect width="10.602" height="16.734" transform="translate(1276.45 2152.368)" fill="#3064ad"/><path d="M1287.49,2169.641h-11.68v-17.817h11.68Zm-10.6-1.078h9.524v-15.656h-9.531Z" fill="#fff"/><rect width="9.793" height="0.809" transform="translate(1276.753 2157.964)" fill="#fff"/><rect width="9.793" height="0.809" transform="translate(1276.753 2163.533)" fill="#fff"/><rect width="0.809" height="16.813" transform="translate(1281.245 2152.289)" fill="#fff"/><rect width="10.601" height="16.734" transform="translate(1307.062 2152.368)" fill="#3064ad"/><path d="M1318.1,2169.641h-11.68v-17.817h11.68Zm-10.6-1.078h9.523v-15.656H1307.5Z" fill="#fff"/><rect width="9.793" height="0.809" transform="translate(1307.366 2157.964)" fill="#fff"/><rect width="9.793" height="0.809" transform="translate(1307.366 2163.533)" fill="#fff"/><rect width="0.809" height="16.813" transform="translate(1311.857 2152.289)" fill="#fff"/></g><g opacity="0.5"><rect width="10.602" height="16.734" transform="translate(1245.839 2209.746)" fill="#3064ad"/><path d="M1256.879,2227.02h-11.685v-17.813h11.68Zm-10.6-1.079h9.523v-15.656h-9.523Z" fill="#fff"/><rect width="9.793" height="0.809" transform="translate(1246.142 2215.343)" fill="#fff"/><rect width="9.793" height="0.809" transform="translate(1246.142 2220.911)" fill="#fff"/><rect width="0.809" height="16.813" transform="translate(1250.633 2209.668)" fill="#fff"/><rect width="10.602" height="16.734" transform="translate(1276.45 2209.746)" fill="#3064ad"/><path d="M1287.49,2227.02h-11.68v-17.813h11.68Zm-10.6-1.079h9.524v-15.656h-9.531Z" fill="#fff"/><rect width="9.793" height="0.809" transform="translate(1276.753 2215.343)" fill="#fff"/><rect width="9.793" height="0.809" transform="translate(1276.753 2220.911)" fill="#fff"/><rect width="0.809" height="16.813" transform="translate(1281.245 2209.668)" fill="#fff"/><rect width="10.601" height="16.734" transform="translate(1307.062 2209.746)" fill="#3064ad"/><path d="M1318.1,2227.02h-11.68v-17.813h11.68Zm-10.6-1.079h9.523v-15.656H1307.5Z" fill="#fff"/><rect width="9.793" height="0.809" transform="translate(1307.366 2215.343)" fill="#fff"/><rect width="9.793" height="0.809" transform="translate(1307.366 2220.911)" fill="#fff"/><rect width="0.809" height="16.813" transform="translate(1311.857 2209.668)" fill="#fff"/></g><rect width="95.701" height="53.08" transform="translate(987.906 2133.316)" fill="#7f92b7"/><rect width="95.701" height="53.08" transform="translate(987.906 2197.44)" fill="#7f92b7"/><rect width="82.437" height="11.044" transform="translate(1001.17 2186.396)" fill="#596277"/><rect width="101.688" height="5.255" transform="translate(981.918 2133)" fill="#fff"/><g opacity="0.5"><rect width="10.602" height="16.734" transform="translate(999.119 2152.368)" fill="#3064ad"/><path d="M1010.158,2169.641H998.474v-17.817h11.68Zm-10.6-1.078h9.523v-15.656h-9.523Z" fill="#fff"/><rect width="9.793" height="0.809" transform="translate(999.422 2157.964)" fill="#fff"/><rect width="9.793" height="0.809" transform="translate(999.422 2163.533)" fill="#fff"/><rect width="0.809" height="16.813" transform="translate(1003.913 2152.289)" fill="#fff"/><rect width="10.602" height="16.734" transform="translate(1029.73 2152.368)" fill="#3064ad"/><path d="M1040.77,2169.641h-11.68v-17.817h11.68Zm-10.6-1.078h9.523v-15.656h-9.53Z" fill="#fff"/><rect width="9.793" height="0.809" transform="translate(1030.033 2157.964)" fill="#fff"/><rect width="9.793" height="0.809" transform="translate(1030.033 2163.533)" fill="#fff"/><rect width="0.809" height="16.813" transform="translate(1034.525 2152.289)" fill="#fff"/><rect width="10.601" height="16.734" transform="translate(1060.342 2152.368)" fill="#3064ad"/><path d="M1071.382,2169.641H1059.7v-17.817h11.68Zm-10.6-1.078h9.522v-15.656h-9.522Z" fill="#fff"/><rect width="9.793" height="0.809" transform="translate(1060.646 2157.964)" fill="#fff"/><rect width="9.793" height="0.809" transform="translate(1060.646 2163.533)" fill="#fff"/><rect width="0.809" height="16.813" transform="translate(1065.137 2152.289)" fill="#fff"/></g><g opacity="0.5"><rect width="10.602" height="16.734" transform="translate(999.119 2209.746)" fill="#3064ad"/><path d="M1010.158,2227.02H998.474v-17.813h11.68Zm-10.6-1.079h9.523v-15.656h-9.523Z" fill="#fff"/><rect width="9.793" height="0.809" transform="translate(999.422 2215.343)" fill="#fff"/><rect width="9.793" height="0.809" transform="translate(999.422 2220.911)" fill="#fff"/><rect width="0.809" height="16.813" transform="translate(1003.913 2209.668)" fill="#fff"/><rect width="10.602" height="16.734" transform="translate(1029.73 2209.746)" fill="#3064ad"/><path d="M1040.77,2227.02h-11.68v-17.813h11.68Zm-10.6-1.079h9.523v-15.656h-9.53Z" fill="#fff"/><rect width="9.793" height="0.809" transform="translate(1030.033 2215.343)" fill="#fff"/><rect width="9.793" height="0.809" transform="translate(1030.033 2220.911)" fill="#fff"/><rect width="0.809" height="16.813" transform="translate(1034.525 2209.668)" fill="#fff"/><rect width="10.601" height="16.734" transform="translate(1060.342 2209.746)" fill="#3064ad"/><path d="M1071.382,2227.02H1059.7v-17.813h11.68Zm-10.6-1.079h9.522v-15.656h-9.522Z" fill="#fff"/><rect width="9.793" height="0.809" transform="translate(1060.646 2215.343)" fill="#fff"/><rect width="9.793" height="0.809" transform="translate(1060.646 2220.911)" fill="#fff"/><rect width="0.809" height="16.813" transform="translate(1065.137 2209.668)" fill="#fff"/></g><rect width="190.964" height="134.039" transform="translate(1068.123 2117.437)" fill="#fff"/><rect width="198.674" height="4.87" transform="translate(1063.402 2112.566)" fill="#fff"/><path d="M1068.123,2119.109l190.965,4.781v-6.454H1068.123Z" fill="#c8dbf3"/><rect width="26.02" height="28.204" transform="translate(1151.523 2221.891)" fill="#fff"/><rect width="23.54" height="26.929" transform="translate(1152.763 2223.166)" fill="#3064ad"/><rect width="0.877" height="26.929" transform="translate(1164.095 2223.166)" fill="#fff"/><path d="M1162,2236.631a.556.556,0,1,1,.557.556.556.556,0,0,1-.557-.556Z" fill="#fff"/><path d="M1165.957,2236.631a.556.556,0,1,1,.556.556h0A.557.557,0,0,1,1165.957,2236.631Z" fill="#fff"/><rect width="199.559" height="5.831" transform="translate(1065.156 2174.287)" fill="#c8dbf3"/><rect width="150.993" height="32.912" transform="translate(1093.75 2133.316)" fill="#7f92b7"/><rect width="150.993" height="32.912" transform="translate(1093.75 2195.257)" fill="#7f92b7"/><path d="M1114.256,2103.5h98.152a3.848,3.848,0,0,1,3.837,3.837V2248.7a3.848,3.848,0,0,1-3.837,3.838h-98.152a3.848,3.848,0,0,1-3.837-3.838V2107.336a3.848,3.848,0,0,1,3.837-3.837" fill="#596277" fill-rule="evenodd"/><rect width="90.871" height="130.793" transform="translate(1117.896 2110.871)" fill="#fff"/><path d="M1163.332,2087.342a4.3,4.3,0,1,1-4.3,4.3,4.3,4.3,0,0,1,4.3-4.3m-33.209,31.679h66.419a1.062,1.062,0,0,0,1.057-1.151c-.533-6.308-5.415-12.351-12-12.351h-9.044v-6.367a2.854,2.854,0,0,0-2.845-2.845h-2.661v-3.267a7.736,7.736,0,0,0-7.713-7.713h0a7.736,7.736,0,0,0-7.713,7.713v3.267h-2.662a2.854,2.854,0,0,0-2.845,2.845v6.367h-9.044c-6.588,0-11.47,6.043-12,12.351a1.062,1.062,0,0,0,1.058,1.151Z" fill="#968073" fill-rule="evenodd"/><g clip-path="url(#a)"><rect width="68.586" height="33.694" transform="translate(1129.039 2085.327)" fill="#968073"/></g><g clip-path="url(#b)"><rect width="67.154" height="32.29" transform="translate(1129.755 2086.029)" fill="#dfbfa7"/></g><path d="M1179.221,2118.319h6.042l4.031-11.379a9.825,9.825,0,0,0-3.7-.719h-2.09Zm-5.321,0h3.416l4.286-12.1h-3.416Z" fill="#f3dcce" fill-rule="evenodd"/><path d="M1163.332,2087.833a3.808,3.808,0,1,1-3.808,3.808,3.808,3.808,0,0,1,3.808-3.808m0-.491a4.3,4.3,0,1,1-4.3,4.3A4.3,4.3,0,0,1,1163.332,2087.342Z" fill="#968073" fill-rule="evenodd"/><g clip-path="url(#c)"><rect width="8.598" height="8.598" transform="translate(1159.033 2087.342)" fill="#968073"/></g><rect width="10.874" height="10.874" transform="translate(1126.422 2152.104)" fill="none" stroke="#bdc0e2" stroke-miterlimit="2.613" stroke-width="0.88"/><rect width="64.829" height="0.927" transform="translate(1135.186 2139.808)" fill="#bdc0e2"/><rect width="73.593" height="0.927" transform="translate(1126.422 2142.246)" fill="#bdc0e2"/><rect width="73.593" height="0.927" transform="translate(1126.422 2144.684)" fill="#bdc0e2"/><rect width="63.125" height="0.927" transform="translate(1126.422 2147.122)" fill="#bdc0e2"/><path d="M1196.1,2124.333v11.361h-1.059l-2.78-5.762v5.762h-1.82v-11.361h1.059l2.78,5.745v-5.745Zm-10.274,1.655a.95.95,0,0,1,.678.2,1.038,1.038,0,0,1,.248.812v6.037a1.038,1.038,0,0,1-.248.812.95.95,0,0,1-.678.2.987.987,0,0,1-.678-.2,1.071,1.071,0,0,1-.249-.812V2127a1.069,1.069,0,0,1,.249-.812A.987.987,0,0,1,1185.822,2125.988Zm0,9.836a2.731,2.731,0,0,0,1.919-.666,2.778,2.778,0,0,0,.828-2.126V2127a2.78,2.78,0,0,0-.828-2.127,3.1,3.1,0,0,0-3.838,0,2.78,2.78,0,0,0-.828,2.127v6.037a2.778,2.778,0,0,0,.828,2.126A2.731,2.731,0,0,0,1185.822,2135.824Zm-4.681-.13v-11.361h-1.82v11.361Zm-3.391-11.361v1.785H1175.9v9.576h-1.82v-9.576h-1.853v-1.785Zm-9.976,7.774h1.456l-.728-4.074Zm2.1,3.587-.331-1.8h-2.084l-.331,1.8h-1.854l2.317-11.361h1.82l2.316,11.361Zm-5.955,0v-1.785h-2.978v-9.576h-1.82v11.361Zm-9.546.13a2.811,2.811,0,0,0,1.92-.666,2.846,2.846,0,0,0,.827-2.126v-8.7h-1.82v8.7a1.075,1.075,0,0,1-.248.812.991.991,0,0,1-.679.2,1.019,1.019,0,0,1-.7-.2,1.091,1.091,0,0,1-.231-.812v-8.7h-1.82v8.7a2.777,2.777,0,0,0,.827,2.126A2.731,2.731,0,0,0,1154.374,2135.824Zm-7.361,0a2.733,2.733,0,0,0,1.919-.666,2.781,2.781,0,0,0,.827-2.126v-3.911h-2.73v1.785h.91v2.126a1.086,1.086,0,0,1-.232.812,1.016,1.016,0,0,1-.694.2.992.992,0,0,1-.679-.2,1.075,1.075,0,0,1-.248-.812V2127a1.073,1.073,0,0,1,.248-.812.992.992,0,0,1,.679-.2,1.016,1.016,0,0,1,.694.2,1.085,1.085,0,0,1,.232.812V2128h1.82V2127a2.783,2.783,0,0,0-.827-2.127,2.738,2.738,0,0,0-1.919-.665,2.815,2.815,0,0,0-1.92.665,2.848,2.848,0,0,0-.827,2.127v6.037a2.846,2.846,0,0,0,.827,2.126A2.809,2.809,0,0,0,1147.013,2135.824Zm-4.318-9.706h-2.978v2.857h2.052v1.785h-2.052v3.149h2.978v1.785h-4.8v-11.361h4.8Zm-8.454,1.006a1.1,1.1,0,0,0-.248-.811.988.988,0,0,0-.678-.2h-.927v3.23h.927a.988.988,0,0,0,.678-.195,1.069,1.069,0,0,0,.248-.811Zm1.771,8.57h-1.853l-.943-4.561h-.828v4.561h-1.82v-11.361h2.747a2.733,2.733,0,0,1,1.919.681,2.7,2.7,0,0,1,.828,2.11v1.218a2.717,2.717,0,0,1-.828,2.126,1.674,1.674,0,0,1-.265.211Z" fill="#171b46"/><path d="M1128.126,2157.282l2.445,2.531,5.379-5.954" fill="none" stroke="#bdc0e2" stroke-miterlimit="2.613" stroke-width="0.87"/><rect width="51.837" height="0.927" transform="translate(1148.178 2153.545)" fill="#bdc0e2"/><rect width="58.844" height="0.927" transform="translate(1141.171 2155.983)" fill="#bdc0e2"/><rect width="58.844" height="0.927" transform="translate(1141.171 2158.421)" fill="#bdc0e2"/><rect width="50.474" height="0.927" transform="translate(1141.171 2160.859)" fill="#bdc0e2"/><rect width="10.874" height="10.874" transform="translate(1126.422 2168.349)" fill="none" stroke="#bdc0e2" stroke-miterlimit="2.613" stroke-width="0.88"/><rect width="10.874" height="10.874" transform="translate(1126.422 2184.594)" fill="none" stroke="#bdc0e2" stroke-miterlimit="2.613" stroke-width="0.88"/><rect width="10.874" height="10.874" transform="translate(1126.422 2200.84)" fill="none" stroke="#bdc0e2" stroke-miterlimit="2.613" stroke-width="0.88"/><rect width="10.874" height="10.874" transform="translate(1126.422 2217.085)" fill="none" stroke="#bdc0e2" stroke-miterlimit="2.613" stroke-width="0.88"/><path d="M1128.126,2173.528l2.445,2.531,5.379-5.954" fill="none" stroke="#bdc0e2" stroke-miterlimit="2.613" stroke-width="0.87"/><path d="M1128.126,2189.773l2.445,2.531,5.379-5.954" fill="none" stroke="#bdc0e2" stroke-miterlimit="2.613" stroke-width="0.87"/><path d="M1128.126,2206.018l2.445,2.531,5.379-5.954" fill="none" stroke="#bdc0e2" stroke-miterlimit="2.613" stroke-width="0.87"/><path d="M1128.126,2222.264l2.445,2.531,5.379-5.954" fill="none" stroke="#bdc0e2" stroke-miterlimit="2.613" stroke-width="0.87"/><rect width="51.837" height="0.927" transform="translate(1148.178 2169.79)" fill="#bdc0e2"/><rect width="51.837" height="0.927" transform="translate(1148.178 2186.035)" fill="#bdc0e2"/><rect width="51.837" height="0.927" transform="translate(1148.178 2202.281)" fill="#bdc0e2"/><rect width="51.837" height="0.927" transform="translate(1148.178 2218.526)" fill="#bdc0e2"/><rect width="58.844" height="0.927" transform="translate(1141.171 2172.228)" fill="#bdc0e2"/><rect width="58.844" height="0.927" transform="translate(1141.171 2188.473)" fill="#bdc0e2"/><rect width="58.844" height="0.927" transform="translate(1141.171 2204.719)" fill="#bdc0e2"/><rect width="58.844" height="0.927" transform="translate(1141.171 2220.964)" fill="#bdc0e2"/><rect width="58.844" height="0.927" transform="translate(1141.171 2174.666)" fill="#bdc0e2"/><rect width="58.844" height="0.927" transform="translate(1141.171 2190.911)" fill="#bdc0e2"/><rect width="58.844" height="0.927" transform="translate(1141.171 2207.156)" fill="#bdc0e2"/><rect width="58.844" height="0.927" transform="translate(1141.171 2223.402)" fill="#bdc0e2"/><rect width="50.474" height="0.927" transform="translate(1141.171 2177.104)" fill="#bdc0e2"/><rect width="50.474" height="0.927" transform="translate(1141.171 2193.349)" fill="#bdc0e2"/><rect width="50.474" height="0.927" transform="translate(1141.171 2209.594)" fill="#bdc0e2"/><rect width="50.474" height="0.927" transform="translate(1141.171 2225.84)" fill="#bdc0e2"/><path d="M1084.589,2232.526c-.546,1.4-3.341,4.268-6.222,6.981-3.439,3.241-7,6.254-7,6.254s-1.628.5-.918-1.9c0,0,3.927-7.215,5.613-9.345.482-.608.98-1.164,1.447-1.647a23.158,23.158,0,0,1,2.131-1.967s-.221-.355-.579-.969c-1.753-3-6.784-12.192-5.23-16.273a14.233,14.233,0,0,1,6.52-7.13s1.475,6.22,2.719,12.615C1084.213,2225.029,1085.163,2231.059,1084.589,2232.526Z" fill="#968073"/><path d="M1083.068,2219.146c-.856,3.937-2.339,9.508-4.009,10.788-1.753-3-6.784-12.192-5.23-16.273a14.233,14.233,0,0,1,6.52-7.13S1081.824,2212.751,1083.068,2219.146Z" fill="#776458"/><path d="M1078.367,2239.507c-3.439,3.241-7,6.254-7,6.254s-1.628.5-.918-1.9c0,0,3.927-7.215,5.613-9.345.482-.608.98-1.164,1.447-1.647C1077.452,2234.711,1077.5,2237.836,1078.367,2239.507Z" fill="#776458"/><path d="M1082.4,2215.813s-4.075-10.229-3.86-10.524c.133-.185.392-5.765.569-9.959.107-2.55.184-4.589.184-4.589s1.806.644,2.239,5.037c.083.847.132,1.645.161,2.39.122,3.117-.106,5.313.359,6.351.577,1.287.37,7.16.548,7.751S1083.693,2214.34,1082.4,2215.813Z" fill="#f79f6a"/><path d="M1079.177,2209l-.325-1.2c-2.289.99-9.015-.457-9.015-.457s-2.005,2.375-.973,7.194c.5,2.351,2.286,12.4,3.015,15.343.264,1.066.469,1.823.551,2.125l0,0a.437.437,0,0,1-.03.275,14.108,14.108,0,0,0-.713,2.346c-1.665,7.8,2.894,16.409,2.894,16.409l.78-.458s.3-10.39,1.112-15.081a8.931,8.931,0,0,1,.455-1.816,19.516,19.516,0,0,0,1.07-5.015,118.16,118.16,0,0,0,.507-12.955C1078.583,2215.7,1079.177,2209,1079.177,2209Z" fill="#c4a895"/><path d="M1068.853,2210.268c-.93-1.408,2.262-7.159,2.148-7.7a15.411,15.411,0,0,0-1.263-3.317,24.939,24.939,0,0,1-1.2-2.6c.166-.231.328-.447.478-.651a5.789,5.789,0,0,0,.556-.873,1.2,1.2,0,0,0,.134-.832,4.187,4.187,0,0,0-.209-.6c-.04-.092-.083-.183-.128-.274a8.551,8.551,0,0,0-1.185-1.725,8.087,8.087,0,0,1,2.91-1.034c.132-.043.248-.075.342-.1l.2-.047c.223-.054.447-.1.641-.135.4-.405.886-1.905.741-4.115l.195.026,3.273.442s-.01,1.023.045,1.982a3.794,3.794,0,0,0,.3,1.615c.254.02.407.035.407.035v0l.006.007c.184.015.354.031.509.049l.037,0c.288.032.526.068.72.1a.326.326,0,0,0,.04.009,3.175,3.175,0,0,1,.748.2v.01c-.027,1.031,1.638,2.835,1.521,5.168,0,.088-.851,6.2-.847,6.293.068,1.741.921,6.645.921,6.645C1081.664,2210.374,1069.354,2211.716,1068.853,2210.268Z" fill="#f79f6a"/><path d="M1071.882,2178.408c-.06-.169-.774-1.974-3.616-1.185,0,0,1.434-.27,1.865.262a2.376,2.376,0,0,0-1.869.029c-.691.483-.718,1.968-.583,2.411s1.009,1.733,1.534,1.7a1.545,1.545,0,0,0,.589-.185,6.968,6.968,0,0,0-.165.793c-.4,2.657,1.469,4.543,2.341,4,.559-.351,1.058.634,1.058.634l4.409-6.655S1073.855,2176.4,1071.882,2178.408Z" fill="#0e141e"/><path d="M1076.484,2186.737s-.012,1.022.045,1.981c-1.813.06-2.871-1.532-3.319-2.423Z" fill="#eb844b"/><path d="M1077.144,2187.608s-4.278.333-4.444-2.334-.831-4.421,1.893-4.746,3.319.659,3.591,1.536S1078.252,2187.453,1077.144,2187.608Z" fill="#f79f6a"/><path d="M1077.966,2180.589c-.711-.762-1.2-.555-1.466-.3a3,3,0,0,0-3.811.852,5.1,5.1,0,0,1-1.482,3.112,3.551,3.551,0,0,0,2.581-.139,3.065,3.065,0,0,0,1.4-1.095,10.021,10.021,0,0,1-1.591,2.205c2.088-1.125,2.768-4.167,2.835-4.488a3.366,3.366,0,0,1,1.01,1.187c.255.666.437,2.059.841,1.986C1078.279,2183.912,1079.032,2181.731,1077.966,2180.589Z" fill="#0e141e"/><path d="M1079.694,2251.282h-6.638a2.758,2.758,0,0,1,.188-1.779c.386-.637.148-1.07-.019-1.612a2.453,2.453,0,0,0,1.089.295,3.274,3.274,0,0,0,1.156-.44,22.549,22.549,0,0,0,1.722,2.079C1077.626,2250.137,1079.56,2250.026,1079.694,2251.282Z" fill="#132b50"/><path d="M1069.828,2251.127l-2.5-6.15a2.763,2.763,0,0,1,1.719-.5,1.278,1.278,0,0,0,1.4-.619,2.589,2.589,0,0,0,.226,1.115,2.344,2.344,0,0,0,.693.784,23.956,23.956,0,0,0-1.129,2.5C1070.111,2248.78,1070.942,2250.53,1069.828,2251.127Z" fill="#132b50"/><path d="M1079.965,2202.212c0-.05.26-1.972.493-3.679a5.44,5.44,0,0,0,1.674-.429c-.029-.744-.525-7.114-3.2-7.473-.127-.035-.259-.064-.386-.089l-.04-.008c-.328-.061-.619-.093-.72-.1l-.037,0a24.871,24.871,0,0,1,.783,2.533c-.015.267-2.58.355-4.266.378s-2.615-2.777-2.63-2.82c-.065.015-.132.031-.2.048a8.834,8.834,0,0,0-3.252,1.132,8.5,8.5,0,0,1,1.185,1.726c.046.09.088.182.128.274a4.176,4.176,0,0,1,.209.595,1.205,1.205,0,0,1-.134.833,5.833,5.833,0,0,1-.556.872c-.15.2-.312.421-.478.651a5.935,5.935,0,0,0,.287.726h0c.241.53.574,1.177.913,1.875a15.4,15.4,0,0,1,1.263,3.316c.114.543-3.078,6.293-2.147,7.7.148.428,1.327.612,2.9.62,3.739.02,9.686-.962,9.137-2.031C1080.886,2208.857,1080.033,2203.954,1079.965,2202.212Z" fill="#2e2f2e"/><path d="M1071.749,2210.888c-1.568-.008-2.747-.192-2.9-.62-.931-1.408,2.261-7.158,2.147-7.7a15.4,15.4,0,0,0-1.263-3.316c-.339-.7-.672-1.345-.913-1.875h0c.132-.521.21-.825.21-.825s3.4,3.949,4.175,5.813C1073.821,2203.826,1072.394,2208.8,1071.749,2210.888Z" fill="#1e1e1e"/><path d="M1070.135,2208.211l-.672,1.164a17.864,17.864,0,0,1-7.07-5.565c-.151-2.189.873-4.705,2.1-6.876.2-.359.411-.709.622-1.046a27.155,27.155,0,0,0,3.233,2.417c-.179.3-.394.653-.626,1.034-.958,1.579-2.2,3.6-2.356,3.761C1065.1,2203.366,1070.135,2208.211,1070.135,2208.211Z" fill="#f79f6a"/><path d="M1067.9,2199.812c-2.126-.14-3.694-2.906-3.694-2.906a26.536,26.536,0,0,1,3.979-5.208C1074.078,2193.948,1068.861,2199.177,1067.9,2199.812Z" fill="#2e2f2e"/><path d="M1070.135,2208.21a1.328,1.328,0,0,0,.6-.259c.237-.207.991-.792,1.035-.61s-.547.462-.236.507.8-.164,1.287-.09,1.239,1.2,1.008,1.332-1.075-.311-1.3-.155a3.653,3.653,0,0,1-3.069.44C1068.2,2208.794,1070.135,2208.21,1070.135,2208.21Z" fill="#f79f6a"/><path d="M1247.906,2178.133a30.415,30.415,0,0,1-1.107-3.763,3.027,3.027,0,0,1,2.878-3.253,22.5,22.5,0,0,0,3.549-.515l-.493.582a1.848,1.848,0,0,1,1.468.269c.748.492,1.129,1.947,1.017,3.2s-1.091,2.633-1.1,3.151S1247.906,2178.133,1247.906,2178.133Z" fill="#132b50"/><path d="M1240.854,2209.125a7.32,7.32,0,0,1-.772,2.167s-.326,1.008,1.811,2.522.059-4.689.059-4.689Z" fill="#d27f47"/><path d="M1248.394,2182.764s-1.2,6.415-2.506,13.117c-1.42,7.285-2.969,14.908-3.248,15-.534.178-1.351-.519-1.707-1.41a45.961,45.961,0,0,1-.443-10.4,18.758,18.758,0,0,1,.281-2.162c.534-2.4.7-10.907,2.3-12.242S1248.394,2182.764,1248.394,2182.764Z" fill="#d27f47"/><path d="M1248.394,2182.764s-.691,3.7-1.6,8.41c-.287,1.5-.6,3.093-.911,4.707-1.281,2.511-2.38,4.218-2.719,3.9a3.922,3.922,0,0,0-2.679-.71,18.758,18.758,0,0,1,.281-2.162c.042-.19.082-.418.12-.677.448-3.025.7-10.336,2.179-11.565C1244.672,2183.327,1248.394,2182.764,1248.394,2182.764Z" fill="#dfbfa7"/><path d="M1246.8,2191.174c-.287,1.5-.6,3.093-.911,4.707-1.281,2.511-2.38,4.218-2.719,3.9a3.922,3.922,0,0,0-2.679-.71,18.758,18.758,0,0,1,.281-2.162c.042-.19.082-.418.12-.677l3.841-9.27Z" fill="#968073"/><path d="M1253.709,2182.669a28.369,28.369,0,0,0-.168-4.144l-5.165.844s0,1.576.023,3.325h-.005s-.141,1.622,1.857,1.859S1253.763,2183.921,1253.709,2182.669Z" fill="#d27f47"/><path d="M1248.362,2179.688s1.216,2.492,2.611,2.492,2.7-2.344,2.7-2.344Z" fill="#c06733"/><path d="M1251.8,2251.135a9.1,9.1,0,0,1,.623-2.334c.436-.87,3.2-.317,3.2-.317s.554.475.673,2.691Z" fill="#2d2f30"/><path d="M1242.368,2251.116c.651-.4.28-3.361.28-3.361s-3.032-2.426-3.449-.569-2.881,2.692-4.284,2.919a1.505,1.505,0,0,0-1.361,1.011Z" fill="#2d2f30"/><path d="M1248.53,2179.872a7.088,7.088,0,0,0,2.4.833,19.252,19.252,0,0,0,2.579-.726c.614-.372.575-1.126.606-2.174a16.291,16.291,0,0,0,.024-2.929c-.164-.855-.707-1.342-2.225-1.474-2.787-.242-3.948.456-4,1.39-.012.251-.024.491-.032.717C1247.771,2178.423,1248,2179.457,1248.53,2179.872Z" fill="#d27f47"/><path d="M1248.649,2229.095a13.891,13.891,0,0,0-.222,1.638c-.282,5.5-4.629,18.071-5.407,18.365-1.2.454-3.1-.511-4.088-.827a.851.851,0,0,1-.6-.966c2.153-9.9,2.944-24.146,3.232-32.582a38.221,38.221,0,0,1,.875-7.185s10.6-2.829,10.664.749C1253.162,2211.454,1249.595,2223.871,1248.649,2229.095Z" fill="#63738f"/><path d="M1248.649,2229.095l-7.082-14.372a38.221,38.221,0,0,1,.875-7.185s10.6-2.829,10.664.749C1253.162,2211.454,1249.595,2223.871,1248.649,2229.095Z" fill="#526075"/><path d="M1246.29,2208.3l5.6,40.62a10.965,10.965,0,0,0,4.375.118s1.641-21.6,1.5-26.826,1.178-13.975-.3-14.941S1246.29,2208.3,1246.29,2208.3Z" fill="#7f92b7"/><path d="M1258.28,2207.271a.837.837,0,0,1-.825.87l-8.831.135-6.488.1c-.3,0,.657-2.425.677-18.272,0-3.536,5.479-7.341,5.58-7.341v0a2.125,2.125,0,0,0,2.039,1.53c1.467.1,3.267-.634,3.267-1.479a3.917,3.917,0,0,1,.444.573,22.855,22.855,0,0,1,3.15,8.2c.744,3.577.458,8.36.993,14.53C1258.326,2206.563,1258.269,2206.959,1258.28,2207.271Z" fill="#f78e0d"/><path d="M1257.954,2208.19a18,18,0,0,1-3.37.982,33.245,33.245,0,0,1-6.529.655c-4.293.028-5.919-1.452-5.919-1.452-.3,0,.657-2.425.677-18.272,0-3.536,5.479-7.341,5.58-7.341v0s-.141,4.708,1.284,6.093c0,0,2-1.543,4.589-5.935a27.724,27.724,0,0,1,3.027,8.665,24.421,24.421,0,0,1,.4,3.007c.25,3.126.194,6.942.592,11.523.039.446-.018.842-.007,1.154C1258.3,2207.742,1258.425,2208.183,1257.954,2208.19Z" fill="#dfbfa7"/><path d="M1257.954,2208.19a18,18,0,0,1-3.37.982,11.553,11.553,0,0,1-1.682-5.952c-.2-5.068,4.61-11.593,4.61-11.593l.183,2.967c.25,3.126.194,6.942.592,11.523.039.446-.018.842-.007,1.154C1258.3,2207.742,1258.425,2208.183,1257.954,2208.19Z" fill="#968073"/><rect width="9.474" height="12.996" transform="matrix(0.866, -0.5, 0.5, 0.866, 1245.58, 2195.769)" fill="#42464d"/><path d="M1261.567,2201.558a25.334,25.334,0,0,1-4.553-.131,43.752,43.752,0,0,1-7.9-1.59l.915-1.563s3.741-.165,6.481-.566a16.491,16.491,0,0,0,1.788-.344c.6-.16-2.362-7.655-3.854-12.063-.356-1.052-.628-1.928-.749-2.486,0,0,.26.042.67.122a13.887,13.887,0,0,1,4.527,1.528C1260.256,2185.493,1263.648,2197.08,1261.567,2201.558Z" fill="#d27f47"/><path d="M1250.067,2198.274s-1.268-1.187-1.757-1.187-1.9.514-2.046.91-.2,1.108.2,1.266a18.234,18.234,0,0,0,2.506.594C1249.4,2199.9,1250.47,2199.659,1250.067,2198.274Z" fill="#d27f47"/><path d="M1261.567,2201.558a25.334,25.334,0,0,1-4.553-.131,5.436,5.436,0,0,0-.5-3.719,16.491,16.491,0,0,0,1.788-.344c.6-.16-2.362-7.655-3.854-12.063-.119-1.425-.182-2.379-.182-2.379l.1.015a13.887,13.887,0,0,1,4.527,1.528C1260.256,2185.493,1263.648,2197.08,1261.567,2201.558Z" fill="#dfbfa7"/><path d="M1249.677,2188.857s4-1.761,4.056-1.9a3.167,3.167,0,0,0-.475-1.523s1.919.178,2.038-.06a16.061,16.061,0,0,0,.158-2.216,3.06,3.06,0,0,0-1.741-.87s-.866,2.148-1.187,2.789A19.761,19.761,0,0,1,1249.677,2188.857Z" fill="#968073"/><path d="M1248.728,2185.375a13.324,13.324,0,0,0,.949,3.482,11.876,11.876,0,0,1-2.265-1.929c-.178-.475.505-1.4.505-1.4s-1.247-.029-1.276-.445a13.352,13.352,0,0,1,.385-2.047s1.072-.783,1.369-.753Z" fill="#968073"/><path d="M1247.858,2176.444s.108-1.858,1.261-1.88,3.157-.135,3.99-.918-4.951-.425-4.951-.425S1247.459,2175.458,1247.858,2176.444Z" fill="#132b50"/><path d="M1252.487,2173.922s1.5.612,1.714,1.567C1254.2,2175.489,1254.7,2171.968,1252.487,2173.922Z" fill="#132b50"/><rect width="42.715" height="9.659" transform="translate(1067.704 2142.709)" fill="#fff"/><rect width="42.715" height="9.659" transform="translate(1216.245 2142.709)" fill="#fff"/></g><rect width="610" height="2.858" transform="translate(480 3507.143)" fill="#797878"/><g transform="translate(-348.604 1257.132)"><path d="M1389.622,2165.91a3.324,3.324,0,0,0-2.4-4l-6.348-1.641c-.062-.019-.125-.037-.188-.053l-.319-.078h0l-65.21-16.058a3.379,3.379,0,0,0-4.089,2.473l-20.743,84.236a3.379,3.379,0,0,0,2.473,4.089l65.528,16.137a3.379,3.379,0,0,0,4.089-2.474l13.152-53.408,3.316.84a3.325,3.325,0,0,0,4.048-2.441Z" fill="#dfbfa7"/><rect width="92.189" height="69.792" transform="translate(1291.058 2230.055) rotate(-74.718)" fill="#dedede"/><rect width="92.189" height="69.792" transform="translate(1289.503 2228.254) rotate(-75.431)" fill="#efefef"/><path d="M1351.3,2228.376l-.05.006.066,0Z" fill="#333232"/><rect width="92.189" height="69.792" transform="matrix(0.216, -0.976, 0.976, 0.216, 1287.49, 2227.876)" fill="#fff"/><rect width="3.777" height="42.91" transform="translate(1318.288 2150.856) rotate(-77.554)" fill="#e3e3e2"/><rect width="1.602" height="58.692" transform="matrix(0.216, -0.976, 0.976, 0.216, 1309.541, 2153.874)" fill="#d5d5d5"/><rect width="1.602" height="40.475" transform="translate(1308.72 2157.594) rotate(-77.554)" fill="#d5d5d5"/><rect width="1.602" height="58.692" transform="matrix(0.216, -0.976, 0.976, 0.216, 1307.899, 2161.315)" fill="#d5d5d5"/><rect width="1.602" height="58.692" transform="matrix(0.216, -0.976, 0.976, 0.216, 1307.078, 2165.036)" fill="#d5d5d5"/><rect width="1.602" height="49.768" transform="matrix(0.216, -0.976, 0.976, 0.216, 1306.257, 2168.756)" fill="#d5d5d5"/><rect width="1.602" height="58.692" transform="matrix(0.216, -0.976, 0.976, 0.216, 1304.639, 2175.167)" fill="#d5d5d5"/><rect width="1.602" height="58.692" transform="matrix(0.216, -0.976, 0.976, 0.216, 1303.818, 2178.887)" fill="#d5d5d5"/><rect width="1.593" height="58.692" transform="translate(1303.014 2182.53) rotate(-77.554)" fill="#d5d5d5"/><rect width="1.593" height="58.692" transform="matrix(0.216, -0.976, 0.976, 0.216, 1302.198, 2186.228)" fill="#d5d5d5"/><rect width="1.593" height="58.692" transform="translate(1301.381 2189.927) rotate(-77.554)" fill="#d5d5d5"/><rect width="1.593" height="39.779" transform="matrix(0.216, -0.976, 0.976, 0.216, 1300.565, 2193.625)" fill="#d5d5d5"/><rect width="1.593" height="58.692" transform="translate(1299.749 2197.323) rotate(-77.554)" fill="#d5d5d5"/><rect width="1.886" height="18.461" transform="translate(1337.698 2215.054) rotate(-77.554)" fill="#d5d5d5"/><rect width="1.886" height="27.303" transform="matrix(0.216, -0.976, 0.976, 0.216, 1297.487, 2206.179)" fill="#d5d5d5"/><path d="M1318.88,2220.956a9.5,9.5,0,0,0-16.4-9.473,10.443,10.443,0,1,0,16.4,9.473Zm-6.069,5.673a8.888,8.888,0,1,1,4.814-11.611A8.888,8.888,0,0,1,1312.811,2226.629Z" fill="#9ea2aa"/><path d="M1306.244,2210.759a8.287,8.287,0,1,0,10.826,4.489A8.287,8.287,0,0,0,1306.244,2210.759Zm5.886,14.223a7.105,7.105,0,1,1,3.848-9.283A7.105,7.105,0,0,1,1312.13,2224.982Z" fill="#9ea2aa"/><rect width="1.258" height="9.269" transform="translate(1305.24 2216.308) rotate(-70.717)" fill="#9ea2aa"/><rect width="1.258" height="11.108" transform="translate(1303.734 2217.831) rotate(-70.717)" fill="#9ea2aa"/><rect width="0.353" height="19.872" transform="matrix(0.168, -0.986, 0.986, 0.168, 1332.497, 2227.47)" fill="#d5d5d5"/><path d="M1336.239,2229.55a.49.49,0,0,1-.29-.207l-.007-.012-.009-.009a.079.079,0,0,1-.025-.059v-.015l0-.014a.283.283,0,0,1,0-.133,4.149,4.149,0,0,1,.262-.742l0-.007,0-.008c.185-.6.426-1.343.714-2.215l0-.007,0-.006c.038-.168.086-.366.142-.557.106-.355.233-.716.355-1.065.159-.45.322-.915.446-1.383l.14-.528-.378.394a6.652,6.652,0,0,1-.98.866c-.388.27-.8.52-1.2.763-.465.284-.945.577-1.4.905a.364.364,0,0,1-.3.071l-.025-.007c-.036-.012-.074-.022-.111-.031a1.906,1.906,0,0,0-.695-.023.131.131,0,0,1-.052,0,.143.143,0,0,1-.108-.12.142.142,0,0,1,.123-.158,1.693,1.693,0,0,0,.63-.319l.01-.007.022-.02a.27.27,0,0,1,.033-.029c.137-.1.283-.2.424-.287l.008-.005,0,0c.364-.267.8-.607,1.3-1.011a35.913,35.913,0,0,0,3.556-3.178c.061-.1.115-.087.133-.083a.187.187,0,0,1,.084.049.14.14,0,0,1,.012.2l0,0,0,0-.012.016-.022.027-.007.033a6.224,6.224,0,0,1-.178.608l-.013.04.01.04a.434.434,0,0,1,.014.1,9.047,9.047,0,0,1-.593,2.943l-.16.483.386-.332a.286.286,0,0,1,.135-.081.292.292,0,0,1,.09.006c.037.008.147.034.176.312l0,.022.009.021a.467.467,0,0,1,.034.1,2.823,2.823,0,0,1-.019.9l-.059.431.3-.314a3.98,3.98,0,0,0,.305-.365l0,0,.174-.284c.131-.213.457-.746.532-.87.043-.071.241-.111.485-.054a.553.553,0,0,1,.363.206.08.08,0,0,1,0,.075c-.112.238-.435.88-.548,1.1l.212.177.01-.008a3.273,3.273,0,0,1,.3-.212,2.974,2.974,0,0,1,.855-.285.264.264,0,0,1,.125,0,.442.442,0,0,1,.275.272l.013.031.026.022a.128.128,0,0,1,.038.053l.048.122.354-.111.018-.014a.358.358,0,0,1,.3-.07.384.384,0,0,1,.113.047l.039.023.045,0a31.392,31.392,0,0,1,6.36-.009c.237.032.605.09,1.017.187.992.234,2.223.684,2.45,1.5a.546.546,0,0,1-.076.447.273.273,0,0,1-.229.114,5.548,5.548,0,0,1-.878-.083c-.276-.041-.588-.088-1.007-.112a11.749,11.749,0,0,0-2.068.051c-.4.046-.822.088-1.229.128a31.959,31.959,0,0,0-3.37.453c-.858.18-1.264.26-1.532.313-.452.089-.452.089-1.482.347l-.967.241a.861.861,0,0,1-.4.019h0a.319.319,0,0,1-.248-.4v-.016c.007-.295.132-.368.248-.413a4.517,4.517,0,0,1,1.177-.361c.177-.031.421-.074.814-.156.665-.139,1.372-.266,2.1-.378,1.535-.234,4.792-.553,6.355-.6l.031.007c.028.006.028.006.222-.014.232-.03.294-.038.3-.157l.006-.118-.115-.027c-.026-.006-.03-.007-.209.014-.1-.032-.213-.061-.324-.087a11.334,11.334,0,0,0-2.279-.219c-1.469-.037-2.988,0-4.78.133a.482.482,0,0,1-.106-.006l-.083-.013-.051.067c-.155.2-.76.261-1.542.146h-.018a.249.249,0,0,1-.055-.006h0l-.016,0c-.067-.02-.085-.046-.09-.055l-.079-.119-.158.107a1.7,1.7,0,0,1-1.276.44l-.018,0a.417.417,0,0,1-.264-.188l-.076-.124-.122.08a2.1,2.1,0,0,1-.7.3.275.275,0,0,1-.117,0,.444.444,0,0,1-.212-.129l-.136-.148-.092.179c-.083.16-.176.341-.266.521-.081.164-.156.328-.228.487a4,4,0,0,1-.892,1.4A.308.308,0,0,1,1336.239,2229.55Z" fill="#7da36b"/><g opacity="0.16" style="mix-blend-mode:multiply;isolation:isolate"><path d="M1380.435,2158.905l-.716-.186-22.668,87.091-33.9-8.811-22.2-4.917,56.609,14.713Z" fill="#888787"/><path d="M1291.255,2228.71l-.412-.083-.2.761,10.3,2.694,22.2,4.917Z" fill="#888787"/><path d="M1290.209,2228.478l1.046.232-1.036-.269Z" fill="#888787"/><path d="M1312.693,2139.03v0l.133.03Z" fill="#888787"/><path d="M1374.882,2156.046l.987.257.179-.807-.987-.257Z" fill="#888787"/><path d="M1375.869,2156.3l-.987-.257-19.251,86.922-64.375-14.258,31.895,8.29,33.217,7.357Z" fill="#888787"/><path d="M1313.113,2140.354l.088-.339,9.318,2.422,22.2,4.917-31.895-8.29-.133-.03-.3,1.159Z" fill="#888787"/><path d="M1313.2,2140.015l-.088.339,9.406,2.083Z" fill="#888787"/></g><g opacity="0.16" style="mix-blend-mode:multiply;isolation:isolate"><path d="M1382.37,2160.653l-23.988,87.8-66.617-18.2-.2.721,67.324,18.395,24.235-88.546Z" fill="#888787"/></g></g><g transform="translate(-343.861 1257.132)"><path d="M922.525,2165.91a3.325,3.325,0,0,1,2.4-4l6.348-1.641c.062-.019.125-.037.188-.053l.319-.078h0l65.209-16.058a3.378,3.378,0,0,1,4.089,2.473l20.744,84.236a3.379,3.379,0,0,1-2.473,4.089l-65.528,16.137a3.379,3.379,0,0,1-4.089-2.474l-13.152-53.408-3.317.84a3.326,3.326,0,0,1-4.048-2.441Z" fill="#dfbfa7"/><rect width="69.792" height="92.189" transform="translate(929.468 2159.521) rotate(-15.282)" fill="#dedede"/><rect width="69.792" height="92.189" transform="translate(931.907 2156.585) rotate(-14.569)" fill="#efefef"/><path d="M960.844,2228.376l.05.006-.066,0Z" fill="#333232"/><rect width="69.792" height="92.189" transform="matrix(0.976, -0.216, 0.216, 0.976, 936.581, 2152.959)" fill="#fff"/><rect width="42.91" height="3.777" transform="translate(951.143 2156.417) rotate(-12.446)" fill="#e3e3e2"/><rect width="58.692" height="1.602" transform="matrix(0.976, -0.216, 0.216, 0.976, 944.948, 2164.958)" fill="#d5d5d5"/><rect width="40.475" height="1.602" transform="translate(963.557 2164.753) rotate(-12.446)" fill="#d5d5d5"/><rect width="58.692" height="1.602" transform="matrix(0.976, -0.216, 0.216, 0.976, 946.59, 2172.4)" fill="#d5d5d5"/><rect width="58.692" height="1.602" transform="matrix(0.976, -0.216, 0.216, 0.976, 947.411, 2176.121)" fill="#d5d5d5"/><rect width="49.768" height="1.602" transform="matrix(0.976, -0.216, 0.216, 0.976, 956.947, 2177.918)" fill="#d5d5d5"/><rect width="58.692" height="1.602" transform="matrix(0.976, -0.216, 0.216, 0.976, 949.85, 2186.252)" fill="#d5d5d5"/><rect width="58.692" height="1.602" transform="matrix(0.976, -0.216, 0.216, 0.976, 950.671, 2189.972)" fill="#d5d5d5"/><rect width="58.692" height="1.593" transform="translate(951.477 2193.624) rotate(-12.446)" fill="#d5d5d5"/><rect width="58.692" height="1.593" transform="matrix(0.976, -0.216, 0.216, 0.976, 952.294, 2197.322)" fill="#d5d5d5"/><rect width="58.692" height="1.593" transform="translate(953.11 2201.021) rotate(-12.446)" fill="#d5d5d5"/><rect width="39.779" height="1.593" transform="matrix(0.976, -0.216, 0.216, 0.976, 972.395, 2200.643)" fill="#d5d5d5"/><rect width="58.692" height="1.593" transform="translate(954.743 2208.418) rotate(-12.446)" fill="#d5d5d5"/><rect width="18.461" height="1.886" transform="translate(956.016 2217.191) rotate(-12.446)" fill="#d5d5d5"/><rect width="27.303" height="1.886" transform="matrix(0.976, -0.216, 0.216, 0.976, 987.592, 2210.221)" fill="#d5d5d5"/><path d="M993.466,2222.259a6.025,6.025,0,0,1,1.311,2.267,6.023,6.023,0,0,1,1.852,1.852,5.991,5.991,0,0,1,2.269,1.309,6.012,6.012,0,0,1,2.53.677,6,6,0,0,1,2.619,0,6,6,0,0,1,2.529-.679,6.017,6.017,0,0,1,2.268-1.31,6.045,6.045,0,0,1,1.851-1.853,6.03,6.03,0,0,1,1.309-2.268,6,6,0,0,1,.677-2.53,6.005,6.005,0,0,1,0-2.619,6.035,6.035,0,0,1-.678-2.53,6.015,6.015,0,0,1-1.31-2.268,5.99,5.99,0,0,1-1.853-1.851,6.011,6.011,0,0,1-2.269-1.309,6.012,6.012,0,0,1-2.53-.677,6,6,0,0,1-2.619,0,6.005,6.005,0,0,1-2.529.679,6.017,6.017,0,0,1-2.268,1.31,6.027,6.027,0,0,1-1.851,1.852,6.026,6.026,0,0,1-1.309,2.269,6.012,6.012,0,0,1-.677,2.53,6.005,6.005,0,0,1,0,2.619,6.025,6.025,0,0,1,.678,2.53Zm1.056-7.241a8.887,8.887,0,1,1,4.813,11.611A8.887,8.887,0,0,1,994.522,2215.018Z" fill="#9ea2aa"/><path d="M995.077,2215.248a8.287,8.287,0,1,0,10.826-4.489A8.287,8.287,0,0,0,995.077,2215.248Zm1.092.451a7.105,7.105,0,1,1,3.848,9.283A7.106,7.106,0,0,1,996.169,2215.7Z" fill="#9ea2aa"/><rect width="9.269" height="1.258" transform="translate(997.742 2218.181) rotate(-19.283)" fill="#9ea2aa"/><rect width="11.108" height="1.258" transform="translate(997.513 2220.312) rotate(-19.283)" fill="#9ea2aa"/><rect width="19.872" height="0.353" transform="matrix(0.986, -0.168, 0.168, 0.986, 960.002, 2230.47)" fill="#d5d5d5"/><path d="M975.907,2229.55a.489.489,0,0,0,.291-.207l.007-.012.009-.009a.083.083,0,0,0,.025-.059v-.015l0-.014a.283.283,0,0,0,0-.133,4.154,4.154,0,0,0-.262-.742l0-.007,0-.008c-.184-.6-.425-1.343-.713-2.215l0-.007v-.006c-.039-.168-.086-.366-.143-.557-.105-.355-.232-.716-.355-1.065-.158-.45-.321-.915-.445-1.383l-.14-.528.378.394a6.648,6.648,0,0,0,.98.866c.388.27.8.52,1.2.763.464.284.945.577,1.4.905a.366.366,0,0,0,.305.071l.025-.007c.036-.012.073-.022.111-.031a1.906,1.906,0,0,1,.7-.023.132.132,0,0,0,.052,0,.143.143,0,0,0,.108-.12.142.142,0,0,0-.123-.158,1.693,1.693,0,0,1-.63-.319l-.01-.007-.022-.02a.275.275,0,0,0-.033-.029c-.137-.1-.283-.2-.424-.287l-.008-.005,0,0c-.364-.267-.8-.607-1.3-1.011a35.905,35.905,0,0,1-3.556-3.178c-.061-.1-.115-.087-.133-.083a.188.188,0,0,0-.084.049.141.141,0,0,0-.013.2l0,0,0,0,.012.016.022.027.007.033a6.224,6.224,0,0,0,.178.608l.013.04-.01.04a.38.38,0,0,0-.014.1,9.046,9.046,0,0,0,.593,2.943l.16.483-.386-.332a.286.286,0,0,0-.135-.081.29.29,0,0,0-.09.006c-.037.008-.147.034-.176.312l0,.022-.009.021a.463.463,0,0,0-.034.1,2.823,2.823,0,0,0,.019.9l.059.431-.3-.314a3.971,3.971,0,0,1-.3-.365l0,0-.174-.284c-.131-.213-.457-.746-.532-.87-.043-.071-.241-.111-.485-.054a.554.554,0,0,0-.363.206.077.077,0,0,0,0,.075c.112.238.435.88.547,1.1l-.211.177-.01-.008a3.273,3.273,0,0,0-.3-.212,2.975,2.975,0,0,0-.855-.285.264.264,0,0,0-.125,0,.439.439,0,0,0-.275.272l-.013.031-.026.022a.129.129,0,0,0-.038.053l-.048.122-.354-.111-.019-.014a.355.355,0,0,0-.3-.07.384.384,0,0,0-.113.047l-.039.023-.045,0a31.392,31.392,0,0,0-6.36-.009c-.237.032-.606.09-1.017.187-.992.234-2.223.684-2.45,1.5a.546.546,0,0,0,.076.447.273.273,0,0,0,.229.114,5.548,5.548,0,0,0,.878-.083c.276-.041.588-.088,1.007-.112a11.749,11.749,0,0,1,2.068.051c.4.046.822.088,1.229.128a31.961,31.961,0,0,1,3.37.453c.858.18,1.263.26,1.532.313.452.089.452.089,1.482.347l.966.241a.866.866,0,0,0,.4.019h0a.319.319,0,0,0,.248-.4v-.016c-.007-.295-.132-.368-.248-.413a4.518,4.518,0,0,0-1.177-.361c-.178-.031-.421-.074-.814-.156-.665-.139-1.372-.266-2.1-.378-1.535-.234-4.792-.553-6.355-.6l-.031.007c-.028.006-.028.006-.222-.014-.233-.03-.294-.038-.3-.157l-.006-.118.115-.027c.026-.006.03-.007.209.014.1-.032.213-.061.324-.087a11.333,11.333,0,0,1,2.279-.219c1.469-.037,2.988,0,4.78.133a.482.482,0,0,0,.106-.006l.083-.013.051.067c.155.2.76.261,1.541.146h.019a.248.248,0,0,0,.055-.006h0l.016,0c.067-.02.085-.046.09-.055l.079-.119.158.107a1.7,1.7,0,0,0,1.276.44l.018,0a.416.416,0,0,0,.264-.188l.076-.124.122.08a2.1,2.1,0,0,0,.7.3.275.275,0,0,0,.117,0,.436.436,0,0,0,.211-.129l.137-.148.092.179c.082.16.176.341.265.521.082.164.157.328.229.487a4,4,0,0,0,.892,1.4A.307.307,0,0,0,975.907,2229.55Z" fill="#7da36b"/><g opacity="0.16" style="mix-blend-mode:multiply;isolation:isolate"><path d="M931.712,2158.905l.716-.186L955.1,2245.81,989,2237l22.2-4.917L954.588,2246.8Z" fill="#888787"/><path d="M1020.892,2228.71l.412-.083.2.761-10.3,2.694L989,2237Z" fill="#888787"/><path d="M1021.938,2228.478l-1.046.232,1.036-.269Z" fill="#888787"/><path d="M999.454,2139.03v0l-.133.03Z" fill="#888787"/><path d="M937.265,2156.046l-.987.257-.179-.807.987-.257Z" fill="#888787"/><path d="M936.278,2156.3l.987-.257,19.251,86.922,64.375-14.258L989,2237l-33.217,7.357Z" fill="#888787"/><path d="M999.033,2140.354l-.088-.339-9.318,2.422-22.2,4.917,31.895-8.29.133-.03.3,1.159Z" fill="#888787"/><path d="M998.945,2140.015l.088.339-9.406,2.083Z" fill="#888787"/></g><g opacity="0.16" style="mix-blend-mode:multiply;isolation:isolate"><path d="M929.777,2160.653l23.988,87.8,66.617-18.2.2.721-67.324,18.395-24.235-88.546Z" fill="#888787"/></g></g></g></svg>