<svg xmlns="http://www.w3.org/2000/svg" width="505" height="68" viewBox="0 0 505 68"><g transform="translate(2086 8827)"><g transform="translate(-2086 -8827)"><rect width="505" height="68" fill="#fcf8f4"/><rect width="27" height="6" fill="#d1cfda"/><rect width="27" height="6" transform="translate(505 68) rotate(180)" fill="#d1cfda"/><rect width="27" height="6" transform="translate(6) rotate(90)" fill="#d1cfda"/><rect width="27" height="6" transform="translate(499 68) rotate(-90)" fill="#d1cfda"/></g><path d="M64.743,16.093a6.653,6.653,0,0,1-.333,2.31,4.487,4.487,0,0,1-1.187,1.676,12.537,12.537,0,0,0-1.16,1.182,3.08,3.08,0,0,0-.462.784,2.365,2.365,0,0,0-.156.87A1.477,1.477,0,0,0,63.1,24.6a1.789,1.789,0,0,0,1.316-.483,1.888,1.888,0,0,0,.51-1.354h3.1a4.142,4.142,0,0,1-1.321,3.217,5.163,5.163,0,0,1-3.556,1.155,5.285,5.285,0,0,1-3.556-1.09,3.879,3.879,0,0,1-1.268-3.11,4.786,4.786,0,0,1,1.644-3.352l1.042-1a2.754,2.754,0,0,0,.747-1.01,4.423,4.423,0,0,0,.231-1.482Zm.387-3.287a1.546,1.546,0,0,1-.494,1.182,1.912,1.912,0,0,1-2.492,0,1.546,1.546,0,0,1-.494-1.182,1.572,1.572,0,0,1,.478-1.182,1.955,1.955,0,0,1,2.524,0A1.572,1.572,0,0,1,65.129,12.806Zm14.212,3.416H73.154v4.189h7.262V23H69.931V7.359H80.394V9.97h-7.24V13.7h6.188ZM88.4,19.788a1,1,0,0,0-.564-.9,6.406,6.406,0,0,0-1.81-.585q-4.146-.87-4.146-3.523A3.194,3.194,0,0,1,83.16,12.2a5.178,5.178,0,0,1,3.357-1.037,5.573,5.573,0,0,1,3.54,1.042,3.284,3.284,0,0,1,1.327,2.707h-3.1a1.5,1.5,0,0,0-.43-1.1,1.818,1.818,0,0,0-1.343-.435,1.858,1.858,0,0,0-1.214.354,1.119,1.119,0,0,0-.43.9.957.957,0,0,0,.489.833A5.028,5.028,0,0,0,87,16.012a13.468,13.468,0,0,1,1.955.521,3.212,3.212,0,0,1,2.46,3.126,3.032,3.032,0,0,1-1.364,2.573,5.885,5.885,0,0,1-3.523.983,6.147,6.147,0,0,1-2.594-.521,4.353,4.353,0,0,1-1.778-1.429,3.32,3.32,0,0,1-.645-1.96h2.943a1.621,1.621,0,0,0,.612,1.268,2.429,2.429,0,0,0,1.525.44,2.248,2.248,0,0,0,1.348-.338A1.053,1.053,0,0,0,88.4,19.788ZM97.13,8.52v2.857h1.987v2.277H97.13v5.8a1.385,1.385,0,0,0,.247.924,1.241,1.241,0,0,0,.945.279,4.951,4.951,0,0,0,.913-.075v2.353a6.391,6.391,0,0,1-1.88.279q-3.266,0-3.33-3.3V13.654h-1.7V11.377h1.7V8.52ZM107.583,23a3.448,3.448,0,0,1-.312-1.042,3.756,3.756,0,0,1-2.933,1.257,4.127,4.127,0,0,1-2.831-.988,3.178,3.178,0,0,1-1.123-2.492,3.285,3.285,0,0,1,1.37-2.836,6.758,6.758,0,0,1,3.958-1h1.429v-.666a1.915,1.915,0,0,0-.414-1.289,1.627,1.627,0,0,0-1.305-.483,1.85,1.85,0,0,0-1.23.376,1.277,1.277,0,0,0-.446,1.031h-3.1A3.118,3.118,0,0,1,101.266,13a4.118,4.118,0,0,1,1.762-1.348,6.42,6.42,0,0,1,2.557-.489A5.073,5.073,0,0,1,109,12.242a3.777,3.777,0,0,1,1.262,3.035v5.038a5.557,5.557,0,0,0,.462,2.5V23Zm-2.567-2.159a2.674,2.674,0,0,0,1.268-.306,2.011,2.011,0,0,0,.859-.822v-2h-1.16q-2.331,0-2.481,1.611l-.011.183a1.243,1.243,0,0,0,.408.956A1.586,1.586,0,0,0,105.015,20.841Zm10.538-9.464.1,1.3a4.085,4.085,0,0,1,3.341-1.515,3.1,3.1,0,0,1,3.083,1.772,3.991,3.991,0,0,1,3.491-1.772,3.467,3.467,0,0,1,2.814,1.1,5.061,5.061,0,0,1,.924,3.314V23h-3.115V15.588a2.213,2.213,0,0,0-.387-1.445,1.714,1.714,0,0,0-1.364-.457,1.938,1.938,0,0,0-1.934,1.332L122.514,23h-3.1V15.6a2.186,2.186,0,0,0-.4-1.461,1.731,1.731,0,0,0-1.354-.451,2.012,2.012,0,0,0-1.912,1.1V23h-3.1V11.377Zm15.651,5.7A6.893,6.893,0,0,1,131.871,14a4.876,4.876,0,0,1,1.917-2.095,5.594,5.594,0,0,1,2.906-.741,5.293,5.293,0,0,1,3.84,1.439,5.777,5.777,0,0,1,1.66,3.91l.021.795a6.075,6.075,0,0,1-1.493,4.292,5.787,5.787,0,0,1-8.019.005,6.182,6.182,0,0,1-1.5-4.383Zm3.1.226a4.333,4.333,0,0,0,.623,2.53,2.24,2.24,0,0,0,3.545.011,4.741,4.741,0,0,0,.634-2.766,4.29,4.29,0,0,0-.634-2.514,2.061,2.061,0,0,0-1.783-.892,2.028,2.028,0,0,0-1.762.886A4.821,4.821,0,0,0,134.309,17.307Zm16.113,2.481a1,1,0,0,0-.564-.9,6.406,6.406,0,0,0-1.81-.585q-4.146-.87-4.146-3.523a3.194,3.194,0,0,1,1.284-2.583,5.178,5.178,0,0,1,3.357-1.037,5.573,5.573,0,0,1,3.54,1.042,3.284,3.284,0,0,1,1.327,2.707h-3.1a1.5,1.5,0,0,0-.43-1.1,1.818,1.818,0,0,0-1.343-.435,1.858,1.858,0,0,0-1.214.354,1.119,1.119,0,0,0-.43.9.957.957,0,0,0,.489.833,5.028,5.028,0,0,0,1.649.548,13.468,13.468,0,0,1,1.955.521,3.212,3.212,0,0,1,2.46,3.126,3.032,3.032,0,0,1-1.364,2.573,5.885,5.885,0,0,1-3.523.983,6.147,6.147,0,0,1-2.594-.521,4.353,4.353,0,0,1-1.778-1.429,3.32,3.32,0,0,1-.645-1.96h2.943a1.621,1.621,0,0,0,.612,1.268,2.429,2.429,0,0,0,1.525.44,2.248,2.248,0,0,0,1.348-.338A1.053,1.053,0,0,0,150.422,19.788Zm13.524-7.144a3.875,3.875,0,0,1,3.1-1.482q3.781,0,3.835,4.394V23h-3.1V15.642a2.159,2.159,0,0,0-.43-1.477,1.842,1.842,0,0,0-1.429-.478,2.113,2.113,0,0,0-1.977,1.053V23h-3.1V6.5h3.1ZM179.963,23a3.447,3.447,0,0,1-.312-1.042,3.756,3.756,0,0,1-2.933,1.257,4.127,4.127,0,0,1-2.831-.988,3.178,3.178,0,0,1-1.123-2.492,3.285,3.285,0,0,1,1.37-2.836,6.758,6.758,0,0,1,3.958-1h1.429v-.666a1.915,1.915,0,0,0-.414-1.289,1.627,1.627,0,0,0-1.305-.483,1.85,1.85,0,0,0-1.23.376,1.277,1.277,0,0,0-.446,1.031h-3.1A3.119,3.119,0,0,1,173.647,13a4.118,4.118,0,0,1,1.762-1.348,6.42,6.42,0,0,1,2.557-.489,5.073,5.073,0,0,1,3.411,1.08,3.777,3.777,0,0,1,1.262,3.035v5.038a5.557,5.557,0,0,0,.462,2.5V23ZM177.4,20.841a2.674,2.674,0,0,0,1.268-.306,2.011,2.011,0,0,0,.859-.822v-2h-1.16q-2.331,0-2.481,1.611l-.011.183a1.243,1.243,0,0,0,.408.956A1.586,1.586,0,0,0,177.4,20.841ZM195.5,17.3a7.038,7.038,0,0,1-1.192,4.356,3.95,3.95,0,0,1-3.33,1.563,3.629,3.629,0,0,1-3.019-1.45L187.816,23h-2.793V6.5h3.1v5.919a3.536,3.536,0,0,1,2.825-1.257,3.982,3.982,0,0,1,3.335,1.563,7.048,7.048,0,0,1,1.208,4.4Zm-3.1-.226a4.624,4.624,0,0,0-.559-2.573,1.889,1.889,0,0,0-1.665-.811,2.048,2.048,0,0,0-2.041,1.214v4.587a2.076,2.076,0,0,0,2.063,1.225,1.917,1.917,0,0,0,1.977-1.482A7.647,7.647,0,0,0,192.392,17.07ZM200.685,23H197.57V6.5h3.115Zm9.292,0a3.447,3.447,0,0,1-.312-1.042,3.756,3.756,0,0,1-2.933,1.257,4.127,4.127,0,0,1-2.831-.988,3.178,3.178,0,0,1-1.123-2.492,3.285,3.285,0,0,1,1.37-2.836,6.758,6.758,0,0,1,3.958-1h1.429v-.666a1.915,1.915,0,0,0-.414-1.289,1.627,1.627,0,0,0-1.305-.483,1.85,1.85,0,0,0-1.23.376,1.277,1.277,0,0,0-.446,1.031h-3.1A3.119,3.119,0,0,1,203.661,13a4.118,4.118,0,0,1,1.762-1.348,6.42,6.42,0,0,1,2.557-.489,5.073,5.073,0,0,1,3.411,1.08,3.777,3.777,0,0,1,1.262,3.035v5.038a5.557,5.557,0,0,0,.462,2.5V23Zm-2.567-2.159a2.674,2.674,0,0,0,1.268-.306,2.011,2.011,0,0,0,.859-.822v-2h-1.16q-2.331,0-2.481,1.611l-.011.183a1.243,1.243,0,0,0,.408.956A1.586,1.586,0,0,0,207.41,20.841Zm10.484-9.464.1,1.343a4.058,4.058,0,0,1,3.341-1.558,3.372,3.372,0,0,1,2.75,1.085,5.062,5.062,0,0,1,.924,3.244V23h-3.1V15.566a2.014,2.014,0,0,0-.43-1.434,1.924,1.924,0,0,0-1.429-.446,2.136,2.136,0,0,0-1.966,1.117V23h-3.1V11.377Zm8.98,5.726a7,7,0,0,1,1.219-4.329,3.956,3.956,0,0,1,3.335-1.611,3.56,3.56,0,0,1,2.8,1.268V6.5h3.115V23h-2.8l-.15-1.235a3.653,3.653,0,0,1-2.986,1.45,3.945,3.945,0,0,1-3.292-1.617A7.23,7.23,0,0,1,226.875,17.1Zm3.1.226a4.576,4.576,0,0,0,.569,2.5,1.855,1.855,0,0,0,1.654.87,2.078,2.078,0,0,0,2.03-1.214V14.9a2.048,2.048,0,0,0-2.009-1.214Q229.979,13.687,229.979,17.328Zm9.292-.247A6.893,6.893,0,0,1,239.937,14a4.876,4.876,0,0,1,1.917-2.095,5.594,5.594,0,0,1,2.906-.741A5.293,5.293,0,0,1,248.6,12.6a5.777,5.777,0,0,1,1.66,3.91l.021.795a6.075,6.075,0,0,1-1.493,4.292,5.787,5.787,0,0,1-8.019.005,6.182,6.182,0,0,1-1.5-4.383Zm3.1.226a4.333,4.333,0,0,0,.623,2.53,2.24,2.24,0,0,0,3.545.011,4.741,4.741,0,0,0,.634-2.766,4.29,4.29,0,0,0-.634-2.514,2.061,2.061,0,0,0-1.783-.892,2.028,2.028,0,0,0-1.762.886A4.821,4.821,0,0,0,242.375,17.307Zm14.813-.2a7,7,0,0,1,1.219-4.329,3.956,3.956,0,0,1,3.335-1.611,3.56,3.56,0,0,1,2.8,1.268V6.5h3.115V23h-2.8l-.15-1.235a3.653,3.653,0,0,1-2.986,1.45A3.945,3.945,0,0,1,258.43,21.6,7.23,7.23,0,0,1,257.189,17.1Zm3.1.226a4.576,4.576,0,0,0,.569,2.5,1.855,1.855,0,0,0,1.654.87,2.078,2.078,0,0,0,2.03-1.214V14.9a2.048,2.048,0,0,0-2.009-1.214Q260.293,13.687,260.293,17.328Zm15.125,5.887a5.706,5.706,0,0,1-4.163-1.568,5.575,5.575,0,0,1-1.606-4.179v-.3a7.021,7.021,0,0,1,.677-3.131,4.967,4.967,0,0,1,1.917-2.127,5.382,5.382,0,0,1,2.831-.747,4.824,4.824,0,0,1,3.754,1.5,6.111,6.111,0,0,1,1.37,4.265V18.2h-7.4a2.884,2.884,0,0,0,.908,1.826,2.744,2.744,0,0,0,1.917.688,3.351,3.351,0,0,0,2.8-1.3l1.525,1.708a4.66,4.66,0,0,1-1.891,1.542A6.2,6.2,0,0,1,275.418,23.215Zm-.354-9.539a1.944,1.944,0,0,0-1.5.623,3.219,3.219,0,0,0-.736,1.783h4.318v-.247a2.3,2.3,0,0,0-.559-1.6A2.006,2.006,0,0,0,275.064,13.676ZM294.4,21.818a3.893,3.893,0,0,1-3.18,1.4,3.672,3.672,0,0,1-2.852-1.074,4.586,4.586,0,0,1-1-3.147V11.377h3.1v7.509q0,1.815,1.654,1.815a2.242,2.242,0,0,0,2.17-1.1V11.377h3.115V23h-2.922Zm8.207-10.441.1,1.343a4.058,4.058,0,0,1,3.341-1.558,3.372,3.372,0,0,1,2.75,1.085,5.062,5.062,0,0,1,.924,3.244V23h-3.1V15.566a2.014,2.014,0,0,0-.43-1.434,1.924,1.924,0,0,0-1.429-.446A2.136,2.136,0,0,0,302.79,14.8V23h-3.1V11.377ZM318.806,23a3.448,3.448,0,0,1-.312-1.042,3.756,3.756,0,0,1-2.933,1.257,4.127,4.127,0,0,1-2.831-.988,3.178,3.178,0,0,1-1.123-2.492,3.285,3.285,0,0,1,1.37-2.836,6.758,6.758,0,0,1,3.958-1h1.429v-.666a1.915,1.915,0,0,0-.414-1.289,1.627,1.627,0,0,0-1.305-.483,1.85,1.85,0,0,0-1.23.376,1.277,1.277,0,0,0-.446,1.031h-3.1A3.118,3.118,0,0,1,312.49,13a4.118,4.118,0,0,1,1.762-1.348,6.42,6.42,0,0,1,2.557-.489,5.073,5.073,0,0,1,3.411,1.08,3.777,3.777,0,0,1,1.262,3.035v5.038a5.557,5.557,0,0,0,.462,2.5V23Zm-2.567-2.159a2.674,2.674,0,0,0,1.268-.306,2.011,2.011,0,0,0,.859-.822v-2h-1.16q-2.331,0-2.481,1.611l-.011.183a1.243,1.243,0,0,0,.408.956A1.586,1.586,0,0,0,316.239,20.841Zm16.532-3.352V23h-3.223V7.359h6.1a7.059,7.059,0,0,1,3.1.645,4.75,4.75,0,0,1,2.057,1.832,5.107,5.107,0,0,1,.72,2.7,4.491,4.491,0,0,1-1.574,3.625,6.555,6.555,0,0,1-4.356,1.327Zm0-2.61h2.879a2.831,2.831,0,0,0,1.95-.6,2.188,2.188,0,0,0,.671-1.719,2.58,2.58,0,0,0-.677-1.858,2.528,2.528,0,0,0-1.869-.73h-2.954ZM356.458,23h-3.223l-6.273-10.291V23h-3.223V7.359h3.223l6.284,10.313V7.359h3.212Zm6.241,0h-3.223V7.359H362.7Zm12.6-4.394,2.148-7.229h3.33L376.1,24.8l-.258.612a3.543,3.543,0,0,1-3.437,2.277,4.885,4.885,0,0,1-1.375-.2V25.138l.473.011a2.554,2.554,0,0,0,1.316-.269,1.764,1.764,0,0,0,.682-.892l.365-.956L369.8,11.377h3.341Zm15.608-1.117V23h-3.223V7.359h6.1a7.059,7.059,0,0,1,3.1.645,4.75,4.75,0,0,1,2.057,1.832,5.107,5.107,0,0,1,.72,2.7,4.491,4.491,0,0,1-1.574,3.625,6.555,6.555,0,0,1-4.356,1.327Zm0-2.61h2.879a2.831,2.831,0,0,0,1.95-.6,2.188,2.188,0,0,0,.671-1.719,2.58,2.58,0,0,0-.677-1.858,2.528,2.528,0,0,0-1.869-.73h-2.954ZM405.3,23H402.08V7.359H405.3Zm15.705,0h-3.223l-6.273-10.291V23h-3.223V7.359h3.223L417.8,17.672V7.359h3.212Zm8.6-5.726h-2.567V23h-3.223V7.359h5.812a6.57,6.57,0,0,1,4.275,1.235,4.264,4.264,0,0,1,1.5,3.491,4.812,4.812,0,0,1-.693,2.669,4.725,4.725,0,0,1-2.1,1.7L436,22.85V23h-3.459Zm-2.567-2.61h2.6a2.662,2.662,0,0,0,1.88-.618,2.208,2.208,0,0,0,.666-1.7,2.363,2.363,0,0,0-.628-1.74,2.612,2.612,0,0,0-1.928-.634h-2.589ZM440.193,18.2a6.45,6.45,0,0,1,.365-2.4,4.915,4.915,0,0,1,1.337-1.756,6.841,6.841,0,0,0,1.294-1.407,2.206,2.206,0,0,0,.322-1.144q0-1.815-1.676-1.815a1.7,1.7,0,0,0-1.273.489,1.918,1.918,0,0,0-.5,1.348h-3.115A4.137,4.137,0,0,1,438.275,8.3a6.132,6.132,0,0,1,7.1-.059,3.915,3.915,0,0,1,1.257,3.11,3.783,3.783,0,0,1-.408,1.724,7.1,7.1,0,0,1-1.429,1.8l-.87.827a2.946,2.946,0,0,0-.935,1.837l-.043.655Zm-.312,3.3a1.571,1.571,0,0,1,.489-1.187,1.909,1.909,0,0,1,2.5,0,1.679,1.679,0,0,1,.011,2.358,1.955,1.955,0,0,1-2.524,0A1.559,1.559,0,0,1,439.881,21.5Z" transform="translate(-2086 -8810)" fill="#6e7589"/></g></svg>