<svg xmlns="http://www.w3.org/2000/svg" xmlns:xlink="http://www.w3.org/1999/xlink" width="1030" height="162.4" viewBox="0 0 1030 162.4"><defs><linearGradient id="a" x1="7.098" y1="1.03" x2="7.098" y2="0.026" gradientUnits="objectBoundingBox"><stop offset="0.006" stop-color="#a11c77"/><stop offset="1" stop-color="#fff"/></linearGradient><linearGradient id="b" x1="6.801" y1="1.03" x2="6.801" y2="0.026" xlink:href="#a"/><linearGradient id="c" x1="7.138" y1="1.045" x2="7.138" y2="0.041" xlink:href="#a"/><linearGradient id="d" x1="12.702" y1="1.04" x2="12.702" y2="0.036" gradientUnits="objectBoundingBox"><stop offset="0" stop-color="#fff"/><stop offset="0.994" stop-color="#a11c77"/></linearGradient><linearGradient id="e" x1="5.408" y1="1.064" x2="5.408" y2="0.059" xlink:href="#d"/><linearGradient id="f" y1="0.5" x2="1" y2="0.5" gradientUnits="objectBoundingBox"><stop offset="0" stop-color="#2e2e2d"/><stop offset="0.984" stop-color="#595f66"/></linearGradient><linearGradient id="g" y1="0.5" x2="1" y2="0.5" gradientUnits="objectBoundingBox"><stop offset="0" stop-color="#bf643f"/><stop offset="0.257" stop-color="#d2a03f"/><stop offset="0.631" stop-color="#c67442"/><stop offset="0.822" stop-color="#cc8e45"/><stop offset="0.99" stop-color="#b95037"/></linearGradient><linearGradient id="i" y1="0.5" x2="1" y2="0.5" gradientUnits="objectBoundingBox"><stop offset="0" stop-color="#f19d9f"/><stop offset="0.994" stop-color="#a11c77"/></linearGradient><linearGradient id="j" y1="0.5" x2="1" y2="0.5" gradientUnits="objectBoundingBox"><stop offset="0.006" stop-color="#a11c77"/><stop offset="1" stop-color="#f19d9f"/></linearGradient><linearGradient id="k" y1="0.5" x2="1" y2="0.5" gradientUnits="objectBoundingBox"><stop offset="0" stop-color="#78706b"/><stop offset="1" stop-color="#98908c"/></linearGradient><linearGradient id="n" y1="0.5" x2="1" y2="0.5" gradientUnits="objectBoundingBox"><stop offset="0" stop-color="#cca490"/><stop offset="1" stop-color="#ffd48c"/></linearGradient><linearGradient id="p" x1="0.012" y1="0.476" x2="1.119" y2="0.531" gradientUnits="objectBoundingBox"><stop offset="0.016" stop-color="#feac44"/><stop offset="0.222" stop-color="#feb149"/><stop offset="0.495" stop-color="#fec259"/><stop offset="0.804" stop-color="#fedd74"/><stop offset="1" stop-color="#fff389"/></linearGradient><linearGradient id="r" x1="0.075" y1="0.5" x2="1.051" y2="0.5" gradientUnits="objectBoundingBox"><stop offset="0" stop-color="#583029"/><stop offset="0.984" stop-color="#6b412e"/></linearGradient><linearGradient id="s" y1="0.5" x2="1" y2="0.5" gradientUnits="objectBoundingBox"><stop offset="0" stop-color="#ee6d20"/><stop offset="0.053" stop-color="#ee6f1f"/><stop offset="0.09" stop-color="#f1791e"/><stop offset="0.122" stop-color="#f5881d"/><stop offset="0.152" stop-color="#fc9e1a"/><stop offset="0.159" stop-color="#fea51a"/><stop offset="0.227" stop-color="#fca11a"/><stop offset="0.287" stop-color="#f9961b"/><stop offset="0.345" stop-color="#f4841d"/><stop offset="0.397" stop-color="#ee6d20"/><stop offset="0.473" stop-color="#ee6f20"/><stop offset="0.528" stop-color="#f07921"/><stop offset="0.575" stop-color="#f48823"/><stop offset="0.618" stop-color="#f99e26"/><stop offset="0.656" stop-color="#ffb92a"/><stop offset="0.979" stop-color="#e44011"/></linearGradient><linearGradient id="v" y1="0.5" x2="1" y2="0.5" gradientUnits="objectBoundingBox"><stop offset="0" stop-color="#6d412e"/><stop offset="0.966" stop-color="#99724e"/></linearGradient><linearGradient id="x" x1="0.057" y1="0.5" x2="0.861" y2="0.5" gradientUnits="objectBoundingBox"><stop offset="0" stop-color="#d2a086"/><stop offset="1" stop-color="#f9e2bb"/></linearGradient><linearGradient id="aa" y1="0.5" x2="1" y2="0.5" gradientUnits="objectBoundingBox"><stop offset="0" stop-color="#4e222b"/><stop offset="1" stop-color="#652935"/></linearGradient><linearGradient id="ad" x1="-7.841" y1="-128.007" x2="-7.841" y2="-133.429" gradientUnits="objectBoundingBox"><stop offset="0" stop-color="#c20024"/><stop offset="0.013" stop-color="#c40025"/><stop offset="0.118" stop-color="#d1012d"/><stop offset="0.251" stop-color="#d90232"/><stop offset="0.498" stop-color="#dc0334"/></linearGradient><linearGradient id="ae" x1="-7.933" y1="-130.718" x2="-7.748" y2="-130.718" xlink:href="#aa"/><linearGradient id="af" x1="-722.345" y1="-136.794" x2="-707.666" y2="-136.794" xlink:href="#g"/><linearGradient id="ag" x1="-269.175" y1="-134.433" x2="-263.264" y2="-134.433" xlink:href="#g"/><linearGradient id="aj" x1="-0.062" y1="0.501" x2="1.062" y2="0.499" xlink:href="#f"/><linearGradient id="am" x1="-0.026" x2="0.96" xlink:href="#f"/><linearGradient id="an" x1="0.065" y1="0.408" x2="1.065" y2="0.408" xlink:href="#g"/><linearGradient id="ao" x1="0.08" y1="0.48" x2="1.079" y2="0.48" xlink:href="#g"/><linearGradient id="ap" x1="-0.029" x2="0.98" xlink:href="#f"/><linearGradient id="ar" x1="0.08" y1="0.48" x2="1.079" y2="0.48" xlink:href="#g"/><linearGradient id="as" x1="-0.051" y1="0.5" x2="1.033" y2="0.5" gradientUnits="objectBoundingBox"><stop offset="0" stop-color="#79404b"/><stop offset="1" stop-color="#a86d74"/></linearGradient><linearGradient id="av" x1="0.071" y1="0.5" x2="0.892" y2="0.5" gradientUnits="objectBoundingBox"><stop offset="0" stop-color="#813444"/><stop offset="1" stop-color="#c2616b"/></linearGradient><linearGradient id="ay" y1="0.5" x2="1" y2="0.5" gradientUnits="objectBoundingBox"><stop offset="0" stop-color="#e1565a"/><stop offset="0.039" stop-color="#fbb582"/><stop offset="0.044" stop-color="#fbb683"/><stop offset="0.1" stop-color="#fcc094"/><stop offset="0.169" stop-color="#fdc8a0"/><stop offset="0.266" stop-color="#fdcca7"/><stop offset="0.537" stop-color="#fecea9"/><stop offset="0.74" stop-color="#fecea7"/><stop offset="0.814" stop-color="#fecea0"/><stop offset="0.866" stop-color="#fecf94"/><stop offset="0.908" stop-color="#fecf83"/><stop offset="0.913" stop-color="#ffd081"/><stop offset="0.937" stop-color="#f8bb7a"/><stop offset="0.985" stop-color="#e7866a"/><stop offset="1" stop-color="#e27465"/></linearGradient><linearGradient id="az" x1="0.5" y1="1" x2="0.5" y2="0" xlink:href="#d"/><linearGradient id="ba" x1="0.5" y1="1" x2="0.5" y2="0" xlink:href="#a"/><linearGradient id="bc" x1="-6.45" y1="-502.063" x2="-6.409" y2="-502.063" gradientUnits="objectBoundingBox"><stop offset="0.016" stop-color="#f88f00"/><stop offset="0.276" stop-color="#f68901"/><stop offset="0.621" stop-color="#f17806"/><stop offset="1" stop-color="#ea5e0e"/></linearGradient><linearGradient id="bd" x1="-6.343" y1="-651.286" x2="-6.311" y2="-651.286" xlink:href="#bc"/><linearGradient id="be" x1="-6.566" y1="-1163.948" x2="-6.566" y2="-1220.969" xlink:href="#d"/><linearGradient id="bf" x1="-6.54" y1="-1738.691" x2="-6.54" y2="-1823.861" xlink:href="#a"/><linearGradient id="bg" x1="-9.064" y1="-2718.693" x2="-9.064" y2="-2814.604" xlink:href="#a"/><linearGradient id="bl" x1="0.5" y1="1" x2="0.5" gradientUnits="objectBoundingBox"><stop offset="0" stop-color="#ea5e0e"/><stop offset="0.984" stop-color="#f88f00"/></linearGradient><linearGradient id="bm" x1="-811.86" y1="1" x2="-811.86" y2="0" xlink:href="#bl"/><linearGradient id="bs" x1="0.5" y1="1" x2="0.5" y2="0" xlink:href="#i"/><linearGradient id="bv" x1="0.5" y1="1" x2="0.5" y2="0" xlink:href="#d"/><linearGradient id="bz" x1="-1373.186" y1="1" x2="-1373.186" y2="0" xlink:href="#bl"/><linearGradient id="cd" x1="0.5" y1="1" x2="0.5" y2="0" xlink:href="#d"/><linearGradient id="cj" x1="0.1" y1="0.5" x2="0.995" y2="0.5" gradientUnits="objectBoundingBox"><stop offset="0" stop-color="#4e222b"/><stop offset="1" stop-color="#882a34"/></linearGradient><linearGradient id="cm" y1="0.5" x2="1" y2="0.5" gradientUnits="objectBoundingBox"><stop offset="0" stop-color="#6f492b"/><stop offset="1" stop-color="#9f6e2c"/></linearGradient><linearGradient id="cr" x1="0.5" y1="1" x2="0.5" gradientUnits="objectBoundingBox"><stop offset="0" stop-color="#880822"/><stop offset="0.021" stop-color="#8a0921"/><stop offset="0.231" stop-color="#9e141f"/><stop offset="0.372" stop-color="#a6181f"/><stop offset="0.984" stop-color="#b7241c"/></linearGradient><linearGradient id="cs" x1="0" y1="0.5" x2="1" y2="0.5" xlink:href="#cj"/><linearGradient id="ct" x1="-98.889" y1="-61.44" x2="-94.097" y2="-61.44" xlink:href="#g"/><linearGradient id="cu" x1="-425.828" y1="-61.185" x2="-405.045" y2="-61.185" xlink:href="#g"/><linearGradient id="cv" x1="0" y1="0.5" x2="1" y2="0.5" xlink:href="#d"/></defs><g transform="translate(-285 -1531)"><rect width="1030" height="116" transform="translate(285 1577)" fill="#e4cbb7"/><g transform="translate(-2618.803 242.135)"><g transform="translate(3033.141 1341.314)"><path d="M3081.356,1350.536h-35.725l.473,116,35.453.062Z" transform="translate(-3045.631 -1358.781)" fill="#3e4353" fill-rule="evenodd"/><path d="M3047.6,1350.536l.424,116,31.724.062-.1-116.06Z" transform="translate(-3045.926 -1358.781)" fill="#e4cbb7" fill-rule="evenodd"/><path d="M3055.143,1350.658l-1.668,107.654,1.225.06Z" transform="translate(-3046.804 -1350.554)" fill-rule="evenodd" opacity="0.5" fill="url(#a)" style="mix-blend-mode:multiply;isolation:isolate"/><path d="M3056.241,1458.312l.541-107.654h1.127l-.31,107.654Z" transform="translate(-3047.218 -1350.554)" fill-rule="evenodd" opacity="0.5" fill="url(#b)" style="mix-blend-mode:multiply;isolation:isolate"/><path d="M3072.715,1464.489l1.607-72.522-1.124,72.522Z" transform="translate(-3049.681 -1356.731)" fill-rule="evenodd" opacity="0.5" fill="url(#c)" style="mix-blend-mode:multiply;isolation:isolate"/><path d="M3079.717,1350.64l-.413,78.6.817-78.7Z" transform="translate(-3050.666 -1350.536)" fill-rule="evenodd" opacity="0.5" fill="url(#d)" style="mix-blend-mode:multiply;isolation:isolate"/><path d="M3078.583,1350.536l-2.023,47.427,1.781-47.427Z" transform="translate(-3050.256 -1350.536)" fill-rule="evenodd" opacity="0.5" fill="url(#e)" style="mix-blend-mode:multiply;isolation:isolate"/></g><g transform="translate(3469.185 1350.303)"><path d="M3560.626,1361.106h37.583l-.607,98.828h-39.262Z" transform="translate(-3558.341 -1361.106)" fill-rule="evenodd" fill="url(#f)"/><path d="M3560.348,1387.832h37.969l.14,10.878L3560,1403.07Z" transform="translate(-3558.588 -1365.102)" fill-rule="evenodd" fill="url(#g)"/><path d="M3559.875,1410.095l38.329-4.346-.01,1.716-38.337,3.426Z" transform="translate(-3558.567 -1367.781)" fill-rule="evenodd" fill="url(#g)"/><path d="M3593.688,1361.106l-7.843,98.828h15.871l-1.93-98.828Z" transform="translate(-3562.454 -1361.106)" fill-rule="evenodd" opacity="0.5" fill="url(#i)" style="mix-blend-mode:multiply;isolation:isolate"/><path d="M3560.626,1361.106l-2.286,98.828,2.968-.223v-98.605Z" transform="translate(-3558.341 -1361.106)" fill-rule="evenodd" opacity="0.5" fill="url(#j)" style="mix-blend-mode:multiply;isolation:isolate"/></g><g transform="translate(3796.659 1304.397)"><path d="M3945.679,1307.128h37.583l-.607,144.734h-39.262Z" transform="translate(-3943.393 -1307.128)" fill="#4a4f57" fill-rule="evenodd"/><path d="M3945.4,1346.269h37.969l-.113,21.889-38.209.427Z" transform="translate(-3943.641 -1312.981)" fill-rule="evenodd" fill="url(#k)"/><path d="M3957.482,1321.4h17.286l-.051,9.965-17.4.194Z" transform="translate(-3945.476 -1309.262)" fill="#fff" fill-rule="evenodd" style="mix-blend-mode:soft-light;isolation:isolate"/><path d="M3944.927,1379.679l38.309-1.778-.006,1.372-38.322,1.572Z" transform="translate(-3943.62 -1317.711)" fill-rule="evenodd" fill="url(#k)"/><path d="M3945.679,1307.128l-2.286,144.734,2.968-.327V1307.128Z" transform="translate(-3943.393 -1307.128)" fill-rule="evenodd" opacity="0.5" fill="url(#j)" style="mix-blend-mode:multiply;isolation:isolate"/></g><g transform="translate(3200.221 1304.397)"><path d="M3244.373,1307.128h37.583l-.607,144.734h-39.262Z" transform="translate(-3242.087 -1307.128)" fill-rule="evenodd" fill="url(#n)"/><path d="M3244.095,1346.269h37.97l-.113,21.889-38.209.427Z" transform="translate(-3242.335 -1312.981)" fill-rule="evenodd" fill="url(#g)"/><path d="M3243.621,1379.679l38.309-1.778-.006,1.372-38.322,1.572Z" transform="translate(-3242.314 -1317.711)" fill-rule="evenodd" fill="url(#p)"/><path d="M3244.373,1307.128l-2.286,144.734,2.968-.327V1307.128Z" transform="translate(-3242.087 -1307.128)" fill-rule="evenodd" opacity="0.5" fill="url(#j)" style="mix-blend-mode:multiply;isolation:isolate"/></g><g transform="translate(3101.751 1337.187)"><path d="M3128.589,1345.684h37.583l-.607,111.944H3126.3Z" transform="translate(-3126.304 -1345.684)" fill-rule="evenodd" fill="url(#r)"/><path d="M3128.308,1375.957h37.97l-.1,18.007h-38.24Z" transform="translate(-3126.548 -1350.21)" fill-rule="evenodd" opacity="0.52" fill="url(#s)"/><path d="M3127.837,1435.476l38.329-1.042-.01,1.944h-38.337Z" transform="translate(-3126.53 -1358.955)" fill-rule="evenodd" fill="url(#g)"/><path d="M3128.589,1345.684l-2.286,111.944,2.968-.253V1345.684Z" transform="translate(-3126.304 -1345.684)" fill-rule="evenodd" opacity="0.5" fill="url(#j)" style="mix-blend-mode:multiply;isolation:isolate"/></g><g transform="translate(3760.11 1298.239)"><path d="M3900.417,1299.887h39.974l-.607,150.893h-39.262Z" transform="translate(-3900.417 -1299.887)" fill-rule="evenodd" fill="url(#v)"/><path d="M3902.545,1340.694h37.97l-.1,24.272h-38.24Z" transform="translate(-3900.68 -1305.989)" fill="#a02a20" fill-rule="evenodd" opacity="0.5" style="mix-blend-mode:multiply;isolation:isolate"/><path d="M3902.074,1420.921l38.329-1.4-.01,2.62h-38.337Z" transform="translate(-3900.662 -1317.775)" fill="#a02a20" fill-rule="evenodd" opacity="0.5" style="mix-blend-mode:multiply;isolation:isolate"/><path d="M3900.417,1299.887l.1,150.893,2.968-.341-2.39-150.552Z" transform="translate(-3900.417 -1299.887)" fill-rule="evenodd" opacity="0.5" fill="url(#j)" style="mix-blend-mode:multiply;isolation:isolate"/></g><g transform="translate(3437.024 1320.799)"><path d="M3521.143,1454.753l-.617-128.339h35.19l-2.745,128.7Z" transform="translate(-3520.525 -1326.414)" fill-rule="evenodd" fill="url(#x)"/><path d="M3520.6,1341.2l34.86.039-.031,1.461-34.822-.044Z" transform="translate(-3520.536 -1328.624)" fill-rule="evenodd" fill="url(#g)"/><path d="M3521.182,1462.054l32.2-1.978.053-2.48-32.2,2.065Z" transform="translate(-3520.624 -1346.03)" fill-rule="evenodd" fill="url(#g)"/></g><g transform="translate(3069.068 1320.799)"><path d="M3088.565,1454.746l-.691-128.332h35.19l-2.968,128.332Z" transform="translate(-3087.874 -1326.414)" fill-rule="evenodd" fill="url(#aa)"/><path d="M3088.293,1342.544h34.516l-.036,1.572h-34.438Z" transform="translate(-3087.937 -1328.826)" fill-rule="evenodd" fill="url(#g)"/><path d="M3088.342,1463.276l32.133-2.133.053-2.3-32.186,2.215Z" transform="translate(-3087.944 -1346.217)" fill-rule="evenodd" fill="url(#g)"/></g><g transform="translate(3292.5 1356.518)"><path d="M3350.591,1368.574l129.119.4v23.418l-128.376-1.334Z" transform="translate(-3350.591 -1368.437)" fill-rule="evenodd" fill="url(#ad)"/><path d="M3350.591,1368.574l129.119.4v23.418l-128.376-1.334Z" transform="translate(-3350.591 -1368.437)" fill-rule="evenodd" fill="url(#ae)"/><path d="M3486.889,1369.218l.077,23.133-1.49-.015-.086-23.1Z" transform="translate(-3370.747 -1368.533)" fill-rule="evenodd" fill="url(#af)"/><path d="M3366.546,1368.413l1.435,22.766,2.421.025-1.5-22.775Z" transform="translate(-3352.977 -1368.413)" fill-rule="evenodd" fill="url(#ag)"/></g><g transform="translate(3619.304 1291.979)"><path d="M3734.854,1449.4V1292.528h20.763l-1.751,157.152Z" transform="translate(-3734.854 -1292.527)" fill="#56585e" fill-rule="evenodd"/><path d="M3735.1,1312.28h20.366l-.021,1.925h-20.32Z" transform="translate(-3734.891 -1295.481)" fill-rule="evenodd" fill="url(#g)"/><path d="M3734.854,1459.161h19.163l.142-12.7h-19.3Z" transform="translate(-3734.854 -1315.544)" fill-rule="evenodd" fill="url(#g)"/></g><g transform="translate(3141.387 1291.979)"><path d="M3172.908,1449.4V1292.528h20.763l-1.751,157.152Z" transform="translate(-3172.908 -1292.527)" fill-rule="evenodd" fill="url(#aj)"/><path d="M3173.156,1312.28h20.366l-.022,1.925h-20.32Z" transform="translate(-3172.945 -1295.481)" fill-rule="evenodd" fill="url(#g)"/><path d="M3172.908,1459.161h19.163l.142-12.7h-19.3Z" transform="translate(-3172.908 -1315.544)" fill-rule="evenodd" fill="url(#g)"/></g><g transform="translate(3161.872 1291.881)"><path d="M3197,1449.378l.278-156.966h20.763l-2.03,157.251Z" transform="translate(-3196.995 -1292.411)" fill-rule="evenodd" fill="url(#am)"/><path d="M3197.535,1312.176H3217.9l-.025,1.926h-20.32Z" transform="translate(-3197.076 -1295.366)" fill-rule="evenodd" fill="url(#an)"/><path d="M3197.023,1459.15h19.163l.164-12.713h-19.3Z" transform="translate(-3197 -1315.443)" fill-rule="evenodd" fill="url(#ao)"/></g><g transform="translate(3182.189 1291.881)"><path d="M3220.885,1449.378l.278-156.966h20.763l-2.03,157.251Z" transform="translate(-3220.885 -1292.411)" fill-rule="evenodd" fill="url(#ap)"/><path d="M3221.424,1312.176h20.365l-.025,1.926h-20.32Z" transform="translate(-3220.965 -1295.366)" fill-rule="evenodd" fill="url(#an)"/><path d="M3220.912,1459.15h19.163l.164-12.713h-19.3Z" transform="translate(-3220.889 -1315.443)" fill-rule="evenodd" fill="url(#ar)"/></g><g transform="translate(3836.276 1316.21)"><path d="M3989.975,1453.7V1321.018h20.763l.044,132.769Z" transform="translate(-3989.975 -1321.017)" fill-rule="evenodd" fill="url(#as)"/><path d="M3990.223,1337.725h20.365l-.021,3.12h-20.32Z" transform="translate(-3990.013 -1323.516)" fill-rule="evenodd" fill="url(#g)"/><path d="M3989.975,1462.039h20.654l.152-10.825h-20.807Z" transform="translate(-3989.975 -1340.486)" fill-rule="evenodd" fill="url(#g)"/></g><g transform="translate(3857.039 1316.21)"><path d="M4014.389,1453.7V1321.018h20.763l-1.751,132.922Z" transform="translate(-4014.389 -1321.017)" fill-rule="evenodd" fill="url(#av)"/><path d="M4014.637,1337.725H4035l-.021,3.12h-20.32Z" transform="translate(-4014.427 -1323.516)" fill-rule="evenodd" fill="url(#g)"/><path d="M4014.389,1461.959h19.163l.142-10.745h-19.3Z" transform="translate(-4014.389 -1340.486)" fill-rule="evenodd" fill="url(#g)"/></g><g transform="translate(3548.868 1295.02)"><path d="M3652.034,1450.214l2.714-154.112h3.3l-1.61,154.112Z" transform="translate(-3652.034 -1296.102)" fill="#642935" fill-rule="evenodd"/><path d="M3670.557,1450.214l1.422-154.112h3.3l-1.61,154.112Z" transform="translate(-3654.804 -1296.102)" fill="#642935" fill-rule="evenodd"/><path d="M3657.208,1450.78h11.353l1.393-150.893s-6.264,1.158-11.136,0Z" transform="translate(-3652.808 -1296.668)" fill-rule="evenodd" fill="url(#ay)"/><path d="M3661.219,1300.306l-2.117,150.253,2.557-150.2Z" transform="translate(-3653.091 -1296.731)" fill-rule="evenodd" opacity="0.5" fill="url(#az)" style="mix-blend-mode:multiply;isolation:isolate"/><path d="M3664.4,1300.49l-1.733,150.38h.493Z" transform="translate(-3653.624 -1296.758)" fill-rule="evenodd" opacity="0.5" fill="url(#ba)" style="mix-blend-mode:multiply;isolation:isolate"/><path d="M3664.7,1458.013l1.115-108.258-.558,108.258Z" transform="translate(-3653.928 -1304.125)" fill-rule="evenodd" opacity="0.5" fill="url(#ba)" style="mix-blend-mode:multiply;isolation:isolate"/></g><g transform="translate(3283.47 1377.958)"><path d="M3339.974,1393.623l154.112,2.822v3.428l-154.112-1.657Z" transform="translate(-3339.974 -1393.623)" fill-rule="evenodd" fill="url(#bc)"/><path d="M3339.974,1412.959l154.112,1.415v3.428l-154.112-1.6Z" transform="translate(-3339.974 -1396.514)" fill-rule="evenodd" fill="url(#bd)"/><path d="M3339.974,1399.023v11.852l150.9,1.386s-1.152-6.515,0-11.581Z" transform="translate(-3339.974 -1394.43)" fill="#e4cbb7" fill-rule="evenodd"/><path d="M3490.573,1403.178,3340.308,1401l150.217,2.635Z" transform="translate(-3340.024 -1394.726)" fill-rule="evenodd" opacity="0.5" fill="url(#be)" style="mix-blend-mode:multiply;isolation:isolate"/><path d="M3490.368,1406.485l-150.394-1.766v.514Z" transform="translate(-3339.974 -1395.282)" fill-rule="evenodd" opacity="0.5" fill="url(#bf)" style="mix-blend-mode:multiply;isolation:isolate"/><path d="M3340.237,1406.846l108.383,1.13-108.383-.548Z" transform="translate(-3340.013 -1395.6)" fill-rule="evenodd" opacity="0.5" fill="url(#bg)" style="mix-blend-mode:multiply;isolation:isolate"/></g><g transform="translate(3012.669 1295.02)"><path d="M3021.559,1450.214l2.714-154.112h3.3l-1.611,154.112Z" transform="translate(-3021.559 -1296.102)" fill="#8d4658" fill-rule="evenodd"/><path d="M3040.082,1450.214,3041.5,1296.1h3.3l-1.61,154.112Z" transform="translate(-3024.329 -1296.102)" fill="#8d4658" fill-rule="evenodd"/><path d="M3026.732,1450.78h11.354l1.393-150.893s-6.265,1.158-11.136,0Z" transform="translate(-3022.332 -1296.668)" fill-rule="evenodd" fill="url(#ay)"/><path d="M3030.744,1300.306l-2.117,150.253,2.557-150.2Z" transform="translate(-3022.616 -1296.731)" fill-rule="evenodd" opacity="0.5" fill="url(#az)" style="mix-blend-mode:multiply;isolation:isolate"/><path d="M3033.921,1300.49l-1.732,150.38h.492Z" transform="translate(-3023.148 -1296.758)" fill-rule="evenodd" opacity="0.5" fill="url(#ba)" style="mix-blend-mode:multiply;isolation:isolate"/><path d="M3034.226,1458.013l1.115-108.258-.558,108.258Z" transform="translate(-3023.453 -1304.125)" fill-rule="evenodd" opacity="0.5" fill="url(#ba)" style="mix-blend-mode:multiply;isolation:isolate"/></g><g transform="translate(3502.333 1310.132)"><path d="M3600.031,1452.871l-2.714-139h3.321l1.78,139Z" transform="translate(-3597.317 -1313.871)" fill-rule="evenodd" fill="url(#bl)"/><path d="M3651.614,1452.871l2.714-139h-3.321l-1.78,139Z" transform="translate(-3605.079 -1313.871)" fill-rule="evenodd" fill="url(#bm)"/><path d="M3601.244,1315.6s23.122,2.259,42.556,1.053l-1.748,136.48h-39.046Z" transform="translate(-3597.905 -1314.129)" fill="#e4cbb7" fill-rule="evenodd"/><path d="M3605.728,1315.979l1.894,137.206-.947-137.206Z" transform="translate(-3598.575 -1314.186)" fill-rule="evenodd" opacity="0.5" fill="url(#az)" style="mix-blend-mode:multiply;isolation:isolate"/><path d="M3610.974,1316.356l2.506,136.663-2.173-136.641Z" transform="translate(-3599.359 -1314.242)" fill-rule="evenodd" opacity="0.5" fill="url(#az)" style="mix-blend-mode:multiply;isolation:isolate"/><path d="M3614.919,1316.6v24.237l.963-24.183Z" transform="translate(-3599.949 -1314.279)" fill-rule="evenodd" opacity="0.5" fill="url(#az)" style="mix-blend-mode:multiply;isolation:isolate"/><path d="M3619.694,1458.749l-2.745-103.192,3,103.263Z" transform="translate(-3600.253 -1320.104)" fill-rule="evenodd" opacity="0.5" fill="url(#ba)" style="mix-blend-mode:multiply;isolation:isolate"/><path d="M3639.483,1317.231v127.447l.414-127.447Z" transform="translate(-3603.622 -1314.373)" fill-rule="evenodd" opacity="0.5" fill="url(#az)" style="mix-blend-mode:multiply;isolation:isolate"/><path d="M3652.237,1313.871h-3.321l-.032,2.52-3.979.338-9.662,135.859,14.28.283Z" transform="translate(-3602.988 -1313.871)" fill-rule="evenodd" opacity="0.5" fill="url(#bs)" style="mix-blend-mode:multiply;isolation:isolate"/></g><g transform="translate(3672.1 1310.132)"><path d="M3799.647,1452.871l-2.714-139h3.321l1.78,139Z" transform="translate(-3796.933 -1313.871)" fill="#4a4f57" fill-rule="evenodd"/><path d="M3851.23,1452.871l2.714-139h-3.321l-1.78,139Z" transform="translate(-3804.695 -1313.871)" fill="#4a4f57" fill-rule="evenodd"/><path d="M3800.86,1315.6s23.122,2.259,42.556,1.053l-1.749,136.48h-39.046Z" transform="translate(-3797.52 -1314.129)" fill="#e4cbb7" fill-rule="evenodd"/><path d="M3805.344,1315.979l1.894,137.206-.947-137.206Z" transform="translate(-3798.191 -1314.186)" fill-rule="evenodd" opacity="0.5" fill="url(#az)" style="mix-blend-mode:multiply;isolation:isolate"/><path d="M3810.589,1316.356l2.506,136.663-2.173-136.641Z" transform="translate(-3798.975 -1314.242)" fill-rule="evenodd" opacity="0.5" fill="url(#az)" style="mix-blend-mode:multiply;isolation:isolate"/><path d="M3814.535,1316.6v24.237l.963-24.183Z" transform="translate(-3799.565 -1314.279)" fill-rule="evenodd" opacity="0.5" fill="url(#bv)" style="mix-blend-mode:multiply;isolation:isolate"/><path d="M3819.31,1458.749l-2.745-103.192,3,103.263Z" transform="translate(-3799.868 -1320.104)" fill-rule="evenodd" opacity="0.5" fill="url(#ba)" style="mix-blend-mode:multiply;isolation:isolate"/><path d="M3839.1,1317.231v127.447l.414-127.447Z" transform="translate(-3803.238 -1314.373)" fill-rule="evenodd" opacity="0.5" fill="url(#az)" style="mix-blend-mode:multiply;isolation:isolate"/></g><g transform="translate(3719.328 1288.866)"><path d="M3852.534,1449.132l-.068-160.266h3.321l-.865,160.266Z" transform="translate(-3852.465 -1288.866)" fill-rule="evenodd" fill="url(#bl)"/><path d="M3899.352,1449.132l.068-160.266H3896.1l.865,160.266Z" transform="translate(-3858.99 -1288.866)" fill-rule="evenodd" fill="url(#bz)"/><path d="M3856.237,1290.855a148.792,148.792,0,0,0,33.737,1.214l.9,157.36h-35.518Z" transform="translate(-3852.897 -1289.163)" fill="#e4cbb7" fill-rule="evenodd"/><path d="M3860.876,1291.3l1.894,158.2-.947-158.2Z" transform="translate(-3853.723 -1289.229)" fill-rule="evenodd" opacity="0.5" fill="url(#az)" style="mix-blend-mode:multiply;isolation:isolate"/><path d="M3870.067,1292.01v27.945l.963-27.883Z" transform="translate(-3855.097 -1289.336)" fill-rule="evenodd" opacity="0.5" fill="url(#az)" style="mix-blend-mode:multiply;isolation:isolate"/><path d="M3874.842,1455.91l-2.745-118.98,3,119.062Z" transform="translate(-3855.401 -1296.053)" fill-rule="evenodd" opacity="0.5" fill="url(#ba)" style="mix-blend-mode:multiply;isolation:isolate"/><path d="M3884.262,1292.74v146.945l.413-146.945Z" transform="translate(-3857.22 -1289.445)" fill-rule="evenodd" opacity="0.5" fill="url(#cd)" style="mix-blend-mode:multiply;isolation:isolate"/></g><g transform="translate(3238.724 1288.866)"><path d="M3287.428,1449.132l-.068-160.266h3.321l-.865,160.266Z" transform="translate(-3287.36 -1288.866)" fill="#464b4f" fill-rule="evenodd"/><path d="M3334.247,1449.132l.068-160.266h-3.321l.865,160.266Z" transform="translate(-3293.885 -1288.866)" fill="#464b4f" fill-rule="evenodd"/><path d="M3291.132,1290.855a148.783,148.783,0,0,0,33.736,1.214l.9,157.36h-35.518Z" transform="translate(-3287.792 -1289.163)" fill-rule="evenodd" fill="url(#ay)"/><path d="M3295.771,1291.3l1.894,158.2-.947-158.2Z" transform="translate(-3288.618 -1289.229)" fill-rule="evenodd" opacity="0.5" fill="url(#az)" style="mix-blend-mode:multiply;isolation:isolate"/><path d="M3304.962,1292.01v27.945l.963-27.883Z" transform="translate(-3289.992 -1289.336)" fill-rule="evenodd" opacity="0.5" fill="url(#az)" style="mix-blend-mode:multiply;isolation:isolate"/><path d="M3309.737,1455.91l-2.745-118.98,3,119.062Z" transform="translate(-3290.295 -1296.053)" fill-rule="evenodd" opacity="0.5" fill="url(#ba)" style="mix-blend-mode:multiply;isolation:isolate"/><path d="M3319.156,1292.74v146.945l.414-146.945Z" transform="translate(-3292.115 -1289.445)" fill-rule="evenodd" opacity="0.5" fill="url(#az)" style="mix-blend-mode:multiply;isolation:isolate"/></g><g transform="translate(3567.73 1311.925)"><path d="M3675.635,1317.044l51.938-1.064-1.932,136.923-51.429.283Z" transform="translate(-3674.212 -1315.979)" fill-rule="evenodd" fill="url(#cj)"/><path d="M3675.521,1352.137l51.8,1.122v9.687h-51.8Z" transform="translate(-3674.408 -1321.386)" fill-rule="evenodd" fill="url(#g)"/><path d="M3675.3,1370.435l51.764.442-.015,1.088-51.81.963Z" transform="translate(-3674.366 -1324.122)" fill-rule="evenodd" fill="url(#g)"/><path d="M3688.735,1466.618v-7.982l25.363-1.2v8.2Z" transform="translate(-3676.384 -1337.132)" fill="#fff" fill-rule="evenodd" style="mix-blend-mode:soft-light;isolation:isolate"/><path d="M3674.967,1408.463l51.143.263v2.571l-51.143-1.223Z" transform="translate(-3674.325 -1329.809)" fill="#a02a20" fill-rule="evenodd" opacity="0.5" style="mix-blend-mode:multiply;isolation:isolate"/></g><g transform="translate(3635.564 1336.688)"><g transform="translate(0 0.5)"><path d="M3756.068,1345.684h34.442l2.714,111.944h-39.25Z" transform="translate(-3753.973 -1345.684)" fill-rule="evenodd" fill="url(#cm)"/><path d="M3755.81,1375.957h34.8l-.09,18.007h-35.042Z" transform="translate(-3754.198 -1350.21)" fill-rule="evenodd" fill="url(#g)"/><path d="M3755.378,1435.476l35.124-1.042-.01,1.944h-35.132Z" transform="translate(-3754.181 -1358.955)" fill-rule="evenodd" fill="url(#g)"/><path d="M3756.068,1345.684l-2.094,111.944,2.72-.253V1345.684Z" transform="translate(-3753.973 -1345.684)" fill-rule="evenodd" opacity="0.5" fill="url(#j)" style="mix-blend-mode:multiply;isolation:isolate"/></g><path d="M3789.181,1345.6,3784,1456.483l13.553-.2-1.8-111.183Z" transform="translate(-3758.463 -1345.096)" fill-rule="evenodd" opacity="0.5" fill="url(#i)" style="mix-blend-mode:multiply;isolation:isolate"/></g><g transform="translate(2962.107 1298.239)"><path d="M2962.44,1301.082l53.029-1.195-1.932,150.581-51.429.312Z" transform="translate(-2962.107 -1299.887)" fill-rule="evenodd" fill="url(#cr)"/><path d="M2962.44,1301.082l53.029-1.195-1.932,150.581-51.429.312Z" transform="translate(-2962.107 -1299.887)" fill-rule="evenodd" fill="url(#cs)"/><path d="M2962.278,1312.878l52.766,2.213v10.653h-52.63Z" transform="translate(-2962.133 -1301.83)" fill="#745534" fill-rule="evenodd"/><path d="M2976.629,1465.552v-8.778l25.363-1.317v9.022Z" transform="translate(-2964.279 -1323.15)" fill="#78706b" fill-rule="evenodd" style="mix-blend-mode:soft-light;isolation:isolate"/><path d="M2962.862,1401.6l51.143.289v2.827l-51.143-1.345Z" transform="translate(-2962.22 -1315.096)" fill="#a02a20" fill-rule="evenodd" opacity="0.5" style="mix-blend-mode:multiply;isolation:isolate"/></g><g transform="translate(3283.47 1397.547)"><path d="M3494.055,1418.079l.323,51.939-154.4.357v-53.718Z" transform="translate(-3339.974 -1416.656)" fill="#542c2e" fill-rule="evenodd"/><path d="M3463.246,1417.964l-1.122,51.8h-9.687v-51.8Z" transform="translate(-3356.791 -1416.852)" fill-rule="evenodd" fill="url(#ct)"/><path d="M3446.41,1417.748l-.442,51.764-1.089-.015-.963-51.809Z" transform="translate(-3355.516 -1416.811)" fill-rule="evenodd" fill="url(#cu)"/><path d="M3349.052,1431.178h7.982l1.2,25.363h-8.2Z" transform="translate(-3341.331 -1418.828)" fill="#fff" fill-rule="evenodd" style="mix-blend-mode:soft-light;isolation:isolate"/><path d="M3408.323,1417.411l-.263,51.143h-2.571l1.223-51.143Z" transform="translate(-3349.77 -1416.769)" fill="#a02a20" fill-rule="evenodd" opacity="0.5" style="mix-blend-mode:multiply;isolation:isolate"/><path d="M3339.974,1416.656l.224,8.383,153.887,3.791-.03-10.751Z" transform="translate(-3339.974 -1416.656)" fill-rule="evenodd" opacity="0.8" fill="url(#cv)" style="mix-blend-mode:multiply;isolation:isolate"/></g><path d="M4014.081,1321.019l-1.2,129.625,1.981,1.9Z" transform="translate(-157.042 -4.808)" fill="#824953" fill-rule="evenodd" opacity="0.02"/><path d="M3197.014,1292.528l-1.751,157.151h1.414Z" transform="translate(-34.864 -0.548)" fill="#130f0b" fill-rule="evenodd"/><path d="M3222.038,1292.412l-2.688,157.25,2.351-.1Z" transform="translate(-38.466 -0.53)" fill="#130f0b" fill-rule="evenodd"/><path d="M3285.417,1306.744h-5.7l-5.347,144.734,11.117.327Z" transform="translate(-46.693 -2.673)" fill-rule="evenodd" opacity="0.5" fill="url(#bs)" style="mix-blend-mode:multiply;isolation:isolate"/></g></g></svg>