<svg xmlns="http://www.w3.org/2000/svg" width="610" height="160" viewBox="0 0 610 160"><g transform="translate(-503 -2847)"><g transform="translate(-2320.478 839.576)"><path d="M2835.7,2167.424h580.048l-38.037-128.376c-4.9-21.808-26.464-35.582-47.93-30.608l-474.491,64.521c-21.466,4.974-35.023,26.887-30.127,48.7Z" fill="#fcf8f4"/></g><g transform="translate(44 114.477)"><g transform="translate(-394.661 953.48)"><rect width="158.558" height="134.039" transform="translate(1083.606 1803.575)" fill="#fff"/><rect width="164.959" height="4.87" transform="translate(1079.686 1798.704)" fill="#fff"/><rect width="102.588" height="24.914" transform="translate(1083.606 1815.691)" fill="#968073"/><rect width="95.701" height="53.08" transform="translate(987.906 1819.454)" fill="#7f92b7"/><rect width="95.701" height="53.08" transform="translate(987.906 1883.578)" fill="#7f92b7"/><rect width="82.437" height="11.044" transform="translate(1001.17 1872.534)" fill="#596277"/><path d="M1097.562,1837.1a8.979,8.979,0,1,1,6.35-2.63A8.98,8.98,0,0,1,1097.562,1837.1Zm0-17.132a8.151,8.151,0,1,0,5.765,2.388A8.152,8.152,0,0,0,1097.562,1819.964Z" fill="#fff"/><path d="M1103.361,1826.652h-4.334v-4.335h-2.93v4.335h-4.334v2.929h4.334v4.335h2.93v-4.335h4.334Z" fill="#fff"/><path d="M1113.662,1823.816h1.907v3.429h3.516v-3.429h1.906v8.665h-1.906V1829h-3.516v3.479h-1.907Z" fill="#fff"/><path d="M1122.687,1828.149a4.607,4.607,0,1,1,4.731,4.479c-.046,0-.092,0-.138,0a4.482,4.482,0,0,1-4.592-4.37C1122.687,1828.223,1122.687,1828.186,1122.687,1828.149Zm7.217,0a2.634,2.634,0,0,0-2.541-2.723h-.084a2.6,2.6,0,0,0-2.6,2.6c0,.042,0,.085,0,.127a2.632,2.632,0,0,0,2.541,2.721l.084,0a2.6,2.6,0,0,0,2.6-2.6Q1129.907,1828.212,1129.9,1828.149Z" fill="#fff"/><path d="M1132.943,1831.218l1.126-1.349a3.973,3.973,0,0,0,2.587,1.052c.78,0,1.25-.309,1.25-.842,0-.482-.3-.73-1.745-1.1-1.747-.445-2.874-.929-2.874-2.673,0-1.573,1.263-2.613,3.033-2.613a5.011,5.011,0,0,1,3.218,1.1l-.99,1.436a4.056,4.056,0,0,0-2.251-.854c-.731,0-1.115.334-1.115.78,0,.57.371.755,1.868,1.139,1.758.458,2.749,1.089,2.749,2.624,0,1.721-1.312,2.687-3.181,2.687A5.51,5.51,0,0,1,1132.943,1831.218Z" fill="#fff"/><path d="M1141.455,1823.816H1145c2.067,0,3.317,1.225,3.317,3.021,0,2.005-1.56,3.045-3.5,3.045h-1.449v2.6h-1.906Zm3.417,4.37a1.345,1.345,0,0,0,1.5-1.171,1.3,1.3,0,0,0,.011-.166c0-.854-.6-1.312-1.548-1.312h-1.473v2.649Z" fill="#fff"/><path d="M1149.812,1823.816h1.906v8.665h-1.906Z" fill="#fff"/><path d="M1155.9,1825.574h-2.637v-1.758h7.18v1.758h-2.637v6.908H1155.9Z" fill="#fff"/><path d="M1163.763,1823.753h1.758l3.714,8.728h-1.993l-.792-1.944h-3.664l-.792,1.944h-1.943Zm2.006,5.1-1.151-2.81-1.151,2.81Z" fill="#fff"/><path d="M1170.573,1823.816h1.906v6.932h4.321v1.733h-6.227Z" fill="#fff"/><path d="M1083.606,1805.247l158.558,4.781v-6.454H1083.606Z" fill="#c8dbf3"/><rect width="101.688" height="5.255" transform="translate(981.918 1819.138)" fill="#fff"/><rect width="111.415" height="58.203" transform="translate(1108.282 1878.03)" fill="#3064ad"/><rect width="104.442" height="54.329" transform="translate(1112.027 1882.1)" fill="#fff"/><rect width="96.745" height="12.483" transform="translate(1115.981 1885.537)" fill="#6083c2"/><rect width="28.29" height="34.784" transform="translate(1115.981 1901.41)" fill="#6083c2"/><rect width="34.782" height="34.784" transform="translate(1146.963 1901.41)" fill="#6083c2"/><rect width="28.59" height="34.784" transform="translate(1184.136 1901.41)" fill="#6083c2"/><path d="M1158.359,1901.41h23.385v12.873l-4.168,21.911h-25.834Z" fill="#b0c9ea"/><rect width="26.02" height="28.204" transform="translate(1151.523 1908.029)" fill="#fff"/><rect width="23.54" height="26.929" transform="translate(1152.763 1909.304)" fill="#3064ad"/><rect width="0.877" height="26.929" transform="translate(1164.095 1909.304)" fill="#fff"/><path d="M1162,1922.769a.556.556,0,1,1,.557.556.556.556,0,0,1-.557-.556Z" fill="#fff"/><path d="M1165.957,1922.769a.556.556,0,1,1,.556.556h0A.556.556,0,0,1,1165.957,1922.769Z" fill="#fff"/><path d="M1124.981,1901.41H1139.3l-4.572,34.784h-14.324Z" fill="#b0c9ea"/><path d="M1141.389,1885.536l-1.642,12.483h-14.323l1.642-12.483Z" fill="#b0c9ea"/><path d="M1190.9,1901.41h14.323l-4.572,34.784H1186.33Z" fill="#b0c9ea"/><path d="M1207.312,1885.536l-1.641,12.483h-14.324l1.641-12.483Z" fill="#b0c9ea"/><path d="M1187.214,1885.536l-2.375,12.483h-25.834l2.375-12.483Z" fill="#b0c9ea"/><path d="M1184.159,1903.974h.053l-.053.278Z" fill="#b0c9ea"/><path d="M1100.436,1936.212s-.687-6.086,5.482-7.629,8.592-7.052,15.756-2.425,4.9,10.053,4.9,10.053Z" fill="#9abbe4"/><g opacity="0.5"><rect width="10.602" height="16.734" transform="translate(999.119 1838.506)" fill="#3064ad"/><path d="M1010.158,1855.779H998.474v-17.817h11.68Zm-10.6-1.078h9.523v-15.656h-9.523Z" fill="#fff"/><rect width="9.793" height="0.809" transform="translate(999.422 1844.102)" fill="#fff"/><rect width="9.793" height="0.809" transform="translate(999.422 1849.671)" fill="#fff"/><rect width="0.809" height="16.813" transform="translate(1003.913 1838.427)" fill="#fff"/><rect width="10.602" height="16.734" transform="translate(1029.73 1838.506)" fill="#3064ad"/><path d="M1040.77,1855.779h-11.68v-17.817h11.68Zm-10.6-1.078h9.523v-15.656h-9.53Z" fill="#fff"/><rect width="9.793" height="0.809" transform="translate(1030.033 1844.102)" fill="#fff"/><rect width="9.793" height="0.809" transform="translate(1030.033 1849.671)" fill="#fff"/><rect width="0.809" height="16.813" transform="translate(1034.525 1838.427)" fill="#fff"/><rect width="10.601" height="16.734" transform="translate(1060.342 1838.506)" fill="#3064ad"/><path d="M1071.382,1855.779H1059.7v-17.817h11.68Zm-10.6-1.078h9.522v-15.656h-9.522Z" fill="#fff"/><rect width="9.793" height="0.809" transform="translate(1060.646 1844.102)" fill="#fff"/><rect width="9.793" height="0.809" transform="translate(1060.646 1849.671)" fill="#fff"/><rect width="0.809" height="16.813" transform="translate(1065.137 1838.427)" fill="#fff"/></g><g opacity="0.5"><rect width="10.602" height="16.734" transform="translate(999.119 1895.884)" fill="#3064ad"/><path d="M1010.158,1913.158H998.474v-17.813h11.68Zm-10.6-1.079h9.523v-15.656h-9.523Z" fill="#fff"/><rect width="9.793" height="0.809" transform="translate(999.422 1901.481)" fill="#fff"/><rect width="9.793" height="0.809" transform="translate(999.422 1907.049)" fill="#fff"/><rect width="0.809" height="16.813" transform="translate(1003.913 1895.806)" fill="#fff"/><rect width="10.602" height="16.734" transform="translate(1029.73 1895.884)" fill="#3064ad"/><path d="M1040.77,1913.158h-11.68v-17.813h11.68Zm-10.6-1.079h9.523v-15.656h-9.53Z" fill="#fff"/><rect width="9.793" height="0.809" transform="translate(1030.033 1901.481)" fill="#fff"/><rect width="9.793" height="0.809" transform="translate(1030.033 1907.049)" fill="#fff"/><rect width="0.809" height="16.813" transform="translate(1034.525 1895.806)" fill="#fff"/><rect width="10.601" height="16.734" transform="translate(1060.342 1895.884)" fill="#3064ad"/><path d="M1071.382,1913.158H1059.7v-17.813h11.68Zm-10.6-1.079h9.522v-15.656h-9.522Z" fill="#fff"/><rect width="9.793" height="0.809" transform="translate(1060.646 1901.481)" fill="#fff"/><rect width="9.793" height="0.809" transform="translate(1060.646 1907.049)" fill="#fff"/><rect width="0.809" height="16.813" transform="translate(1065.137 1895.806)" fill="#fff"/></g><rect width="165.694" height="5.831" transform="translate(1081.143 1860.425)" fill="#c8dbf3"/><path d="M1343.383,1904.1v3.95a2.211,2.211,0,0,1-2.209,2.213h-.712a2.22,2.22,0,0,1-2.213-2.213v-3.95a2.174,2.174,0,0,1,.321-1.137v-.005a2.217,2.217,0,0,1,1.892-1.071h.708A2.222,2.222,0,0,1,1343.383,1904.1Z" fill="#131a35"/><path d="M1343.151,1909.042a2.22,2.22,0,0,1-1.981,1.225h-.708a2.22,2.22,0,0,1-2.213-2.213v-3.95a2.174,2.174,0,0,1,.321-1.137C1338.614,1903.212,1339.552,1908.632,1343.151,1909.042Z" fill="#131a35" opacity="0.3" style="isolation:isolate"/><path d="M1308.3,1933.017h10.94v-11.041h-11.413Z" fill="#12182f"/><path d="M1342.792,1909.678,1289.047,1911v-28.342h35.3a8.965,8.965,0,0,1,7.979,4.877l2.31,4.508Z" fill="#fff"/><path d="M1312.26,1931.22a17.571,17.571,0,0,0,1.546,6.3h2.616c2.3,0,4.164-2.822,4.164-6.3s-4.481-6.3-6.78-6.3S1312.26,1927.739,1312.26,1931.22Z" fill="#131a35"/><path d="M1309.643,1931.22c0,3.481,1.864,6.3,4.163,6.3s4.163-2.822,4.163-6.3-1.864-6.3-4.163-6.3S1309.643,1927.739,1309.643,1931.22Z" fill="#003681"/><path d="M1310.723,1931.216c0,2.622,1.4,4.747,3.136,4.747s3.135-2.125,3.135-4.747-1.4-4.748-3.135-4.748S1310.723,1928.6,1310.723,1931.216Z" fill="#6083c2"/><path d="M1342.353,1931.22a17.593,17.593,0,0,0,1.547,6.3h2.617c2.3,0,4.164-2.822,4.164-6.3s-4.481-6.3-6.781-6.3S1342.353,1927.739,1342.353,1931.22Z" fill="#131a35"/><path d="M1339.736,1931.22c0,3.481,1.863,6.3,4.163,6.3s4.163-2.822,4.163-6.3-1.863-6.3-4.163-6.3S1339.736,1927.739,1339.736,1931.22Z" fill="#003681"/><path d="M1273.248,1931.22a17.571,17.571,0,0,0,1.546,6.3h2.618c2.3,0,4.163-2.822,4.163-6.3s-4.481-6.3-6.781-6.3S1273.248,1927.739,1273.248,1931.22Z" fill="#131a35"/><path d="M1270.63,1931.22c0,3.481,1.864,6.3,4.163,6.3s4.164-2.822,4.164-6.3-1.864-6.3-4.164-6.3S1270.63,1927.739,1270.63,1931.22Z" fill="#003681"/><path d="M1354.826,1928.246a4.762,4.762,0,0,1-4.751,4.771h-30.837a9.515,9.515,0,0,0,.137-1.607c0-4.075-2.445-7.383-5.455-7.383s-5.461,3.308-5.461,7.383a9.417,9.417,0,0,0,.131,1.607h-18.014s-.726-8.043-.636-12.077c.071-3.51.071-10.387-.137-12.064,0-.25,17.372-.28,21.756-.3.6-.006.952-.006.988-.006l.06.042.065.048c.81.565,5.343,3.742,8.156,5.6,2.481,1.636,20.792,2.3,27.973,2.5,1.785.047,2.885.066,2.885.066a12.91,12.91,0,0,1,1.85,2.594,9.822,9.822,0,0,1,1.274,4.545c0,1.077.012,2.374.012,3.646C1354.826,1927.83,1354.826,1928.038,1354.826,1928.246Z" fill="#fff"/><path d="M1338.462,1908.572h-24.154a1.428,1.428,0,0,1-1.3-.833l-5.979-13.3a.659.659,0,0,1,.332-.871.668.668,0,0,1,.268-.057h25.48a1.418,1.418,0,0,1,1.3.85l4.284,9.786,1.071,2.445a1.418,1.418,0,0,1-1.3,1.98Z" fill="#3064ad"/><path d="M1327.207,1927.62c0,.418-.022.811-.045,1.161-.174,2.315-2.5,4.235-2.5,4.235h-5.427a9.616,9.616,0,0,0-.635-5.4c-.959-2.153-2.7-3.594-4.682-3.594s-3.731,1.441-4.69,3.594a9.706,9.706,0,0,0-.64,5.4h-19.543v-50.352h15.688l.074,9.383a14.741,14.741,0,0,0,.8,2.664c.48,1.122,1.117,2.616,1.811,4.243,1.428,3.336,3.1,7.228,4.139,9.625.522,1.214.892,2.04.987,2.219.292.558,4.646,2.917,8.326,5.011.918.523,1.8,1.027,2.555,1.484a18.155,18.155,0,0,1,2.331,1.566C1326.762,1919.763,1327.261,1924.464,1327.207,1927.62Z" fill="#c8dbf3"/><path d="M1351.684,1916.836h-28.627l-10.453-8.222-.059-.042h28.877l8.222,6.615Z" fill="#fff"/><path d="M1326.764,1921.666l-2.588-.256a2.026,2.026,0,0,1-1.8-1.659l-.594-3.272a.45.45,0,0,1-.012-.155,31.311,31.311,0,0,1,3.986,2.534A5.706,5.706,0,0,1,1326.764,1921.666Z" fill="#771419"/><path d="M1334.632,1892.047h-29.824a17.261,17.261,0,0,0-.863-4.088,9.759,9.759,0,0,0-3.833-5.3h24.37a9.572,9.572,0,0,1,8.892,5.3,4.239,4.239,0,0,1,.172.394A25.015,25.015,0,0,1,1334.632,1892.047Z" fill="#fff"/><path d="M1326.764,1921.662l-2.594-.256a2.026,2.026,0,0,1-1.8-1.659l-.594-3.272a.484.484,0,0,1-.012-.161,31.981,31.981,0,0,1,3.986,2.54A5.767,5.767,0,0,1,1326.764,1921.662Z" fill="#6092cd"/><path d="M1354.826,1928.245a4.879,4.879,0,0,1-4.985,4.771h-30.606a9.626,9.626,0,0,0-.637-5.4h36.219C1354.826,1927.834,1354.826,1928.034,1354.826,1928.245Z" fill="#131a35"/><path d="M1308.457,1931.41a9.4,9.4,0,0,0,.13,1.607h-19.542v-5.4h20.185A9.439,9.439,0,0,0,1308.457,1931.41Z" fill="#131a35"/><path d="M1334.67,1917.068h11.707c.374,0,.66.5.6,1.063l-.416,4.069c-.061.6-.4,1.04-.8,1.04h-9.645c-.618,0-1.164-.612-1.344-1.507l-.694-3.459C1333.959,1917.674,1334.255,1917.068,1334.67,1917.068Z" fill="#131a35"/><path d="M1338.691,1904.146a43.161,43.161,0,0,1-25.968-10.636h20.388a1.418,1.418,0,0,1,1.3.85Z" fill="#6083c2"/><rect width="52.23" height="50.36" transform="translate(1242.339 1882.661)" fill="#fff"/><path d="M1334.632,1892.047h-29.824a17.273,17.273,0,0,0-.864-4.088h29.429c.064.129.122.26.173.394A25.148,25.148,0,0,1,1334.632,1892.047Z" fill="#c8dbf3"/><path d="M1353.535,1919.429a.965.965,0,0,1-.612.494l-4.016.743c-.339.066-.6-.523-.512-1.13l.393-2.7.012-.066.078-.553a1.166,1.166,0,0,1,.534-.94l.232-.089,2.039,1.646A12.93,12.93,0,0,1,1353.535,1919.429Z" fill="#131a35"/><rect width="83.417" height="4.245" transform="translate(1242.34 1915.807)" fill="#dfbfa7"/><rect width="52.23" height="4.244" transform="translate(1242.339 1891.387)" fill="#dfbfa7"/><path d="M1261.02,1905.624a7.435,7.435,0,1,1,7.435,7.435,7.435,7.435,0,0,1-7.435-7.435Z" fill="#fff"/><path d="M1268.454,1912.206a6.579,6.579,0,1,1,4.655-1.927A6.58,6.58,0,0,1,1268.454,1912.206Zm0-12.558a5.975,5.975,0,1,0,4.227,1.75A5.975,5.975,0,0,0,1268.454,1899.648Z" fill="#968073"/><path d="M1272.706,1904.55h-3.173v-3.177h-2.148v3.177h-3.177v2.147h3.177v3.178h2.148V1906.7h3.177Z" fill="#968073"/><path d="M1331.677,1922.154l-4.908-.488h-.006l-2.588-.256a2.026,2.026,0,0,1-1.8-1.659l-.594-3.272a.449.449,0,0,1-.012-.155v-.006a1.088,1.088,0,0,1,1.309-1.106l7.645,1.552a1.317,1.317,0,0,1,1.006.94l.9,3.32a.9.9,0,0,1-.952,1.13Z" fill="#131a35"/><path d="M1304.908,1895.9l5.145,12.672h-8.828s-1.811-.3-2.043-4c-.248-3.951-.248-10.77-.248-10.77l3.875-.019C1304.287,1894.005,1304.518,1894.816,1304.908,1895.9Z" fill="#3064ad"/><path d="M1307.436,1902.066s.446,5.122-2.082,6.525h4.723Z" fill="#131a35"/><path d="M1308.129,1905.495s-1.067-.759-1.158-1.388v3.582h1.4Z" fill="#131a35"/><path d="M1306.97,1904.1v3.95a2.21,2.21,0,0,1-2.207,2.213h-.714a2.22,2.22,0,0,1-2.213-2.213v-3.95a2.174,2.174,0,0,1,.321-1.137v-.005a2.218,2.218,0,0,1,1.892-1.071h.708A2.222,2.222,0,0,1,1306.97,1904.1Z" fill="#131a35"/><path d="M1294.62,1931.41a5.274,5.274,0,0,0,.241,1.607H1258.9v-5.4h37.144A6,6,0,0,0,1294.62,1931.41Z" fill="#131a35"/><path d="M1278.059,1931.41a5.274,5.274,0,0,0,.241,1.607h-35.961v-5.4h37.144A6,6,0,0,0,1278.059,1931.41Z" fill="#131a35"/><path d="M1259.4,1933.02h-12.848c-.272-1.159-1.088-9.417,6.111-9.417C1259.2,1923.6,1259.686,1931.137,1259.4,1933.02Z" fill="#12182f"/><path d="M1250.573,1931.22a17.6,17.6,0,0,0,1.545,6.3h2.618c2.3,0,4.163-2.822,4.163-6.3s-4.481-6.3-6.781-6.3S1250.573,1927.739,1250.573,1931.22Z" fill="#131a35"/><path d="M1247.956,1931.22c0,3.481,1.864,6.3,4.163,6.3s4.164-2.822,4.164-6.3-1.864-6.3-4.164-6.3S1247.956,1927.739,1247.956,1931.22Z" fill="#003681"/><path d="M1249.036,1931.216c0,2.622,1.4,4.747,3.135,4.747s3.136-2.125,3.136-4.747-1.4-4.748-3.136-4.748S1249.036,1928.6,1249.036,1931.216Z" fill="#6083c2"/><path d="M1185.394,1879.463c-.266-.513,5.807-2.362,5.9,2.7,0,0,11.377-.28,5.945-6.62-1.881-2.2-1.687-4.01-1.631-5.7s-1.171-6.6-5.382-6.1a3.137,3.137,0,0,0-2.479.265C1184.62,1865.63,1177.61,1881.331,1185.394,1879.463Z" fill="#111932"/><path d="M1203.994,1885.126s.74-1.127,1.336-1.149,1.7-.332,1.614-.11-.773.243-.84.375,1.017.331,1.327.354,1.039,0,1.016.155a3.5,3.5,0,0,1-2.226.707,6.18,6.18,0,0,0-2.04.266Z" fill="#ee8f8f"/><path d="M1193.284,1885.492a11.031,11.031,0,0,0,1.133,1.712,6.618,6.618,0,0,0,3.939,2.626,4.235,4.235,0,0,0,2.341-.38h0a10.689,10.689,0,0,0,3.625-3.031,1.7,1.7,0,0,0-.232-1.669s-4.178.94-4.576.741-2.719-6.886-3.271-7.726-2.436-1.276-2.436-1.276Z" fill="#111932"/><path d="M1177.7,1930.587s-1.275,1.163-1.026,1.99,1.4,1.377,1.554,2.388.777,1.561,1.337,1.561h2.669s.41-.711-.583-.925-1.371-1.4-1.309-2.5a19.375,19.375,0,0,0-.094-2.572l-2.114-.49Z" fill="#131a35"/><path d="M1188.486,1931.083s-.458,4.929.1,5.2l7.162-.015s0-.826-1.15-1.01-3.171-.858-3.513-2.358S1188.486,1931.083,1188.486,1931.083Z" fill="#131a35"/><path d="M1183.383,1895.723c1.475-3.305,2.375-4.253,2.2-5.28-.128-.763.39-14.236.39-14.236.175-.054.526-.1.717-.146a1.8,1.8,0,0,0,1.313-1.142,9.142,9.142,0,0,0,.446-3.04l.188.037,3.174.629s-.072,1-.074,1.94v.023a1.827,1.827,0,0,0,1.317,1.766c.4.116.75.215.75.215a29.059,29.059,0,0,1,1.389,6.747c.222,3.419-2.12,4.9.017,11.736C1197.4,1901.95,1182.569,1897.55,1183.383,1895.723Z" fill="#ee8f8f"/><path d="M1191.818,1872.546s-.072,1-.073,1.94c-1.778-.05-2.716-1.67-3.1-2.569Z" fill="#e27c7d"/><path d="M1192.41,1873.437s-4.2.07-4.206-2.548-.549-4.373,2.135-4.527,3.208.844,3.419,1.717S1193.5,1873.352,1192.41,1873.437Z" fill="#ee8f8f"/><path d="M1192.255,1866.3s-1.153,3.072-2.917,3.526a3.474,3.474,0,0,1-2.532-.019,5,5,0,0,0,1.635-2.955S1191.386,1864.835,1192.255,1866.3Z" fill="#111932"/><path d="M1191.968,1866.546a2.606,2.606,0,0,1,1.2.941,4.228,4.228,0,0,1,.569,2.4s.867-2.088-.107-3.269C1192.6,1865.37,1191.968,1866.546,1191.968,1866.546Z" fill="#111932"/><path d="M1191.495,1871.813a1.052,1.052,0,0,0,.87.354.773.773,0,0,0,.648-.428A2.828,2.828,0,0,0,1191.495,1871.813Z" fill="#fff"/><path d="M1183.955,1882.167s.018,1.993.124,3.8a11.62,11.62,0,0,0,.354,2.708c.43.995.916,1.156.916,1.156l3.761.922,1.322.324,4.169-1.246s1.9-5.3,1.136-8.284a22.859,22.859,0,0,0-1.928-5.056s-3.4,3.331-7.833-.283Z" fill="#111932"/><path d="M1194.34,1890.635s2.064,6.427,2.2,8.615-3.947,31.087-4.112,32.095c-.154.95-1.334,1.556-1.334,1.556a1.79,1.79,0,0,1-1.317.1,3.252,3.252,0,0,1-1.415-.667s-1.607-20.61-.613-27.973a116.539,116.539,0,0,0,1.007-13.729Z" fill="#968073"/><path d="M1185.588,1890.444s-3.15,4.227-3.444,7.083-.46,12.892-1.086,15.677-2.924,8.145-2.924,16.831a1.734,1.734,0,0,0,.976.763,8.275,8.275,0,0,0,.859.238,1.351,1.351,0,0,0,1.51-.717c1.554-3.129,6.5-13.22,6.757-15.315.18-1.482,1.743-11.293,5.153-17.05.819-1.383-.5-6.879-.5-6.879Z" fill="#c4a895"/><path d="M1191.59,1871.861s.064.311.832.286c0,0,.645-.02.636-.36A2.071,2.071,0,0,0,1191.59,1871.861Z" fill="#fff"/><path d="M1194.665,1889.643a4.333,4.333,0,0,1-2.477.689c-1.966.04-6.841-.5-6.841-.5a4.042,4.042,0,0,0-.208,1.244s5.953,1.5,9.4.219A2.179,2.179,0,0,0,1194.665,1889.643Z" fill="#131a35"/><path d="M1191.764,1891.011a.9.9,0,1,1,.9,1.016A.963.963,0,0,1,1191.764,1891.011Zm.3,0a.61.61,0,1,0,.6-.718.669.669,0,0,0-.6.718Z" fill="#fff"/><rect width="5.371" height="9.583" transform="matrix(0.211, -0.978, 0.978, 0.211, 1177.739, 1900.601)" fill="#111932"/><path d="M1188.238,1897.371s-2.618,2.194-5.53,1.43a5.817,5.817,0,0,1-3.838-3.451Z" fill="#00327b"/><path d="M1186.409,1897.027a.52.52,0,1,1,.52.521A.519.519,0,0,1,1186.409,1897.027Zm.173,0a.348.348,0,1,0,.349-.347h0A.348.348,0,0,0,1186.582,1897.027Z" fill="#00327b"/><path d="M1179.3,1897.686a4.239,4.239,0,0,1-.148,1.127c-.144.367-.577.857-.721.857s.132-.765.06-.749-.421,1.272-.673,1.3-.482-1.411-.351-1.977a3.874,3.874,0,0,1,.7-1.244Z" fill="#ee8f8f"/><path d="M1185.976,1876.207a5.12,5.12,0,0,0-3.578,2.779c-.968,1.906-1.631,7.9-2.313,9.786a59.4,59.4,0,0,0-2.057,8.095.464.464,0,0,0,.286.512l.855.339a.4.4,0,0,0,.5-.169,69.979,69.979,0,0,0,4.8-9.34,15.465,15.465,0,0,1,3.491-5.6Z" fill="#111932"/><path d="M1187.095,1896.623c.005-.085.546-8.631.444-13.437a20.025,20.025,0,0,0-.761-5.347,3.873,3.873,0,0,0-.877-1.632l-.177.052c.013.021,1.448,2.179,1.551,6.933.1,4.794-.437,13.329-.443,13.415Z" fill="#11172d"/><path d="M1041.669,1931.99l-1.328-.43a41.723,41.723,0,0,1,.315-7.922,25.4,25.4,0,0,1,2.3-8.08,10.41,10.41,0,0,1,2.052-2.8s1.019-2.365,2.368-5.526c1.5-3.516,10.888-4.546,5.531,2.818-1.1,1.511-2.279,4.171-3.694,5.787a31.97,31.97,0,0,0-5.293,8.823A39.355,39.355,0,0,0,1041.669,1931.99Z" fill="#ee8f8f"/><path d="M1038.646,1932.193c-.4.652.467,1.291,1.541,1.893s.63.663,2.005,1.687,2.185.911,2.4.76c.187-.133-.375-.765-.964-1.456-.074-.086-.148-.175-.222-.263a7.382,7.382,0,0,1-1.065-2.8,10.813,10.813,0,0,1,.171-3.39l-1.835-1.458s-.372,2.2-.578,3.114a2.818,2.818,0,0,1-.917,1.321A2.989,2.989,0,0,0,1038.646,1932.193Z" fill="#ee8f8f"/><path d="M1040.187,1934.085c1.075.6.63.663,2.005,1.687s2.185.911,2.4.76c.187-.133-.375-.765-.964-1.456l-.018.007a4.806,4.806,0,0,1-2.3-1.108c-.864-.767-1.533-1.844-2.126-2.379a2.987,2.987,0,0,0-.531.6C1038.243,1932.845,1039.113,1933.483,1040.187,1934.085Z" fill="#00337d"/><path d="M1033.823,1934.331l-1.531.793a25.674,25.674,0,0,1-1.733-2.633,9.6,9.6,0,0,1-1.227-3.066c-.312-2.25-2.694-5.948-2.446-6.577s4.971-1.719,4.971-1.719.923,6.322,1.537,10.408C1033.574,1932.73,1033.727,1933.732,1033.823,1934.331Z" fill="#ee8f8f"/><path d="M1032.658,1925.505a9.8,9.8,0,0,1-2.384.8,7.643,7.643,0,0,1-2.166.135c-.127-.013-.2-.025-.2-.025a8.848,8.848,0,0,1-1.834-2.04,15.593,15.593,0,0,1-1.574-3.2l7.212-.7Z" fill="#2c2c2c"/><path d="M1030.273,1926.31a7.642,7.642,0,0,1-2.166.135l.811-3.149A11.622,11.622,0,0,1,1030.273,1926.31Z" fill="#131a35"/><path d="M1033.822,1934.331l-1.531.793a25.674,25.674,0,0,1-1.733-2.633,6.057,6.057,0,0,0,2.835-.954C1033.574,1932.73,1033.726,1933.732,1033.822,1934.331Z" fill="#fff"/><path d="M1030.346,1922.573a25.265,25.265,0,0,0-3.1,6.563,9.413,9.413,0,0,1-2.165,3.027c-.921.97-1.852,1.822-2.2,2.24l-1.559-.749a20.672,20.672,0,0,1,1.358-3,8.411,8.411,0,0,1,1-1.442c.5-.556.333-7.573.827-8.035S1030.346,1922.573,1030.346,1922.573Z" fill="#ee8f8f"/><path d="M1031.266,1920.949l-2.854,5.8a8.07,8.07,0,0,1-3.627-.774,3.843,3.843,0,0,1-1.245-1.05l.89-3.979Z" fill="#2c2c2c"/><path d="M1026.154,1901.576a2.267,2.267,0,0,0-3.317-.827c-2.345,1.215-.062,5.85-1.293,6.994s.446,1.894.2,2.714.464,1.754,2.1,1.644,3.37-.021,4.112-1.457a8.744,8.744,0,0,0,.287-5.04C1027.957,1905.16,1026.154,1901.576,1026.154,1901.576Z" fill="#171716"/><path d="M1025.959,1910.059h.007C1025.96,1910.067,1025.959,1910.059,1025.959,1910.059Z" fill="#ee8f8f"/><path d="M1029.955,1912.47l-3.989-2.407a3.573,3.573,0,0,0,.4-.991,4.786,4.786,0,0,0,.228-.94c0-.025.007-.05.009-.074a2.616,2.616,0,0,0,.011-.58l.874.317,1.616.585a1.988,1.988,0,0,0,.126.9.718.718,0,0,0,.615.484Z" fill="#ee8f8f"/><path d="M1029.23,1909.275a3,3,0,0,1-2.636-1.143l-.043-.059.052-.015.885-.264,1.616.585A2,2,0,0,0,1029.23,1909.275Z" fill="#e5646b"/><path d="M1029.308,1908.713s-3.47.382-3.541-1.965-.584-3.42,1.816-3.629,2.968.656,3.109,1.449C1031.135,1907.049,1030.286,1908.608,1029.308,1908.713Z" fill="#ee8f8f"/><path d="M1022.837,1900.748c-.048-.108-.083-.179-.083-.179A.622.622,0,0,1,1022.837,1900.748Z" fill="#821d24"/><path d="M1030.424,1909.992s3.327-2.557,3.683-3.4a27.17,27.17,0,0,1,2.277-4.26s.827-.107.945.466a15.02,15.02,0,0,1-1.419,5c-.631,1.026-3.656,4.5-4.65,5.009Z" fill="#ee8f8f"/><path d="M1038.509,1900.764a1.815,1.815,0,0,1-.318.779c-.187.22-.482.658-.669.943-.121.176-.2.307-.2.307l-.943-.461s-.021-1.6.6-1.942c.022-.01.033-.022.054-.022a4.04,4.04,0,0,1,.735-.307.962.962,0,0,1,.659-.011C1038.553,1900.117,1038.575,1900.435,1038.509,1900.764Z" fill="#ee8f8f"/><path d="M1027.772,1904.265c-1.228-.311-.758,1.865-1.069,1.716-.347-.167-.944-.164-.85.255a7.7,7.7,0,0,0,.3.831c.07.262,0,.78-.286.676s-2.941-3.137-1.067-5.5,7.466-.907,5.706,1.564A3.559,3.559,0,0,1,1027.772,1904.265Z" fill="#171716"/><path d="M1032.226,1921.8a5.963,5.963,0,0,1-2.684.527,18.606,18.606,0,0,1-4.695-.986c-.814-.292-1.371-.606-1.3-.869.1-.379.792-3.287,1.437-5.979.589-2.46,1.134-4.74,1.134-4.74s1.625,1.155,2.572.747.826-.867.826-.867a1.968,1.968,0,0,1,.909-.158c.291.092,1.116-.375,1.116-.375a2.936,2.936,0,0,1,.945,2.215,4.1,4.1,0,0,1-.047.726l-.658.758A20.037,20.037,0,0,1,1032.226,1921.8Z" fill="#968073"/><path d="M1036.357,1936.21h-4.569a5.725,5.725,0,0,1,.017-1.378.392.392,0,0,1,.113-.208,1.648,1.648,0,0,0,1.1,0,2.24,2.24,0,0,0,.808-.5c.047.046.992.945,1.428.945a1.03,1.03,0,0,1,1.1,1.141Z" fill="#454444"/><path d="M1025.077,1932.163c-.921.97-1.852,1.822-2.2,2.241l-1.559-.749a20.678,20.678,0,0,1,1.358-3A3.332,3.332,0,0,0,1025.077,1932.163Z" fill="#fff"/><path d="M1023.219,1934s-.057.992.273,1.124.947.457.947,1.086h-2.289a8.536,8.536,0,0,1-1.789-1.106c-.21-.33,1.052-1.738,1.052-1.738A2.066,2.066,0,0,0,1023.219,1934Z" fill="#454444"/><path d="M1027.005,1917.879a2.675,2.675,0,0,1,1.4.07c.392.256.508.658.226.822a1.823,1.823,0,0,1-1.781-.054Z" fill="#ee8f8f"/><path d="M1026.152,1910.072s-3.087.654-4.3,5.452a1.454,1.454,0,0,0,.329,1.33c.56.62,1.794,1.528,4.663,1.862.313.037.355-.759.355-.759a20.5,20.5,0,0,1-2.766-1.939.45.45,0,0,1-.034-.555,12.957,12.957,0,0,0,.894-1.522C1025.52,1913.4,1027.019,1910.319,1026.152,1910.072Z" fill="#ee8f8f"/><path d="M1026.117,1909.758a4.959,4.959,0,0,0-3.294,2.1,3.586,3.586,0,0,0,2.851,2.3S1027.122,1910.891,1026.117,1909.758Z" fill="#968073"/><path d="M1026.945,1905.912a29.087,29.087,0,0,1,3.818.849c.748.342-.894,2.275-1.917,2.21a5.729,5.729,0,0,1-2.128-.715s1.561.163,1.544-.13a3.231,3.231,0,0,0-.472-.959Z" fill="#fff"/><path d="M1050.861,1862.88a5.063,5.063,0,0,0-4.866,2.619c-1.629,3.013-1.5,7.379-3.076,9.439a3.138,3.138,0,0,0,.264,4.011l12.3.416a8.559,8.559,0,0,0,0-5.065C1054.626,1871.538,1058.8,1863.3,1050.861,1862.88Z" fill="#3b1e1e"/><path d="M1061.274,1899.454c-.127.481-.539,1.567-.859,1.566-.261,0-.354-1.329-.69-1.612a4.075,4.075,0,0,1-.947-1.476c-.13-.429-.253-.518-.253-.518h0s-3.889-7.11-4.193-8.93c-.1-.592-.354-1.781-.654-3.112-.324-1.448-.7-3.064-.986-4.276a22.6,22.6,0,0,1,3.735-.349c.228,1.473.432,2.979.608,4.287.262,1.945.459,3.455.582,3.778.338.888,1.271,5.673,2.149,8.157a2.933,2.933,0,0,0,.7,1.1C1060.855,1898.337,1061.4,1898.972,1061.274,1899.454Z" fill="#e27c7d"/><path d="M1054.225,1892.436c-2.147-6.866,2.176-6.777,1.952-10.212s-2.884-7.13-2.884-7.13l-.262-.025a.233.233,0,0,1-.2-.153,5.572,5.572,0,0,1-.126-1.485c0-.946.075-1.95.075-1.95l-3.191-.632-.189-.037a8.291,8.291,0,0,1-.627,3.485,1.068,1.068,0,0,1-.815.589,12.406,12.406,0,0,0-2.7.641,1.484,1.484,0,0,0-.8.593c-.876,1.927-1.751,6.788-2.366,10.256-.342,1.933-.6,3.433-.74,3.751-.38.887-1.542,5.768-2.536,8.176l1.269.381s4.183-6.941,4.563-8.747c.124-.588.428-1.764.783-3.082.054-.2.109-.4.164-.607a10.066,10.066,0,0,1,.929,3.221c-.024,1.045-.732,1.985-2.214,5.306C1043.486,1896.608,1056.418,1899.448,1054.225,1892.436Z" fill="#ee8f8f"/><path d="M1052.776,1871.48s-.073,1-.075,1.95c-1.785-.05-2.729-1.679-3.115-2.582Z" fill="#e27c7d"/><path d="M1053.375,1872.375s-4.224.07-4.227-2.562-.55-4.394,2.146-4.55,3.221.848,3.437,1.726S1054.475,1872.289,1053.375,1872.375Z" fill="#ee8f8f"/><path d="M1059.269,1933.694l-1.355.334a41.694,41.694,0,0,1-3.9-6.9,25.4,25.4,0,0,1-2.3-8.081,10.408,10.408,0,0,1,.271-3.458s-.38-2.547-.9-5.946c-.575-3.778-1.322-8.609-1.906-12.161l.353-.1,5.767-3.372a34.41,34.41,0,0,1,1.972,15.122c-.139,1.863.259,4.746-.094,6.865a32.058,32.058,0,0,0,.145,10.289A39.4,39.4,0,0,0,1059.269,1933.694Z" fill="#ee8f8f"/><path d="M1045.339,1885.562c.792,2.186,1.2,3.078,1.179,3.9a10.811,10.811,0,0,1,7.081-4.5l-8.655-.99A8.133,8.133,0,0,0,1045.339,1885.562Z" fill="#da5961"/><path d="M1054.611,1865.527c-.653-.791-1.145-.619-1.422-.381a3,3,0,0,0-3.8.609,5.029,5.029,0,0,1-1.644,2.969,4.078,4.078,0,0,0,2.545.02c2.128-.452,2.713-2.849,2.8-3.161a3.317,3.317,0,0,1,.921,1.228c.211.67.305,2.05.708,2C1054.711,1868.811,1055.585,1866.711,1054.611,1865.527Z" fill="#3b1e1e"/><path d="M1038.9,1898.09a3.316,3.316,0,0,1-.787,1.162c-.4.253-.972.866-.867,1.352s.212,1.247.719,1.247,1.69-2.24,1.838-2.662.275-.507.275-.507Z" fill="#ee8f8f"/><path d="M1058.8,1918.057c-5.1,2.914-18.527-1.726-18.513-1.995.071-1.427,1.361-10.013,2.876-18.207.931-5.039,3.412-6.921,3.015-7.239l-.006-.006c-1.529-1.085-.868-2.948-.768-3.615a5.072,5.072,0,0,1-3.72-.544c.715-3.492,1.733-8.39,2.752-10.329a.8.8,0,0,1,.251-.265l-.01-.012a7.6,7.6,0,0,1,2.906-.909,28.294,28.294,0,0,0,1.373,2.977c2.082,2.6,5.821,1.427,5.312-.193a28.807,28.807,0,0,0-1.243-2.654,2.577,2.577,0,0,1,.264.026c.628.082,1.071.145,1.391.2a1.863,1.863,0,0,1,.939.3c.55.55,1.266,1.917,1.324,4.358.022.908.967,10.929-2.091,10.755-.069,0-.01.16.122.469a21.873,21.873,0,0,1,2.013,6.677C1058.147,1908.248,1058.8,1918.057,1058.8,1918.057Z" fill="#fff"/><path d="M1052.162,1870.826s.08.324.887.264c0,0,.678-.05.653-.407A2.183,2.183,0,0,0,1052.162,1870.826Z" fill="#fff"/><path d="M1039.8,1899.189s-.139,1.022-.408,1.258-.309.66-.585.432S1039.8,1899.189,1039.8,1899.189Z" fill="#ee8f8f"/><path d="M1056.805,1935.457c0,.767,1.077.852,2.308.8s.885.232,2.592.378,2.338-.376,2.438-.615c.09-.211-.721-.453-1.586-.73l-.327-.106a7.366,7.366,0,0,1-2.382-1.824,10.81,10.81,0,0,1-1.639-2.971l-2.328-.273s.84,2.065,1.148,2.952a2.818,2.818,0,0,1-.085,1.606A3.025,3.025,0,0,0,1056.805,1935.457Z" fill="#ee8f8f"/><path d="M1059.113,1936.254c1.231-.054.885.231,2.592.378s2.338-.376,2.438-.615c.09-.211-.721-.453-1.586-.731l-.011.015a4.791,4.791,0,0,1-2.541.269c-1.139-.2-2.276-.76-3.061-.9a3.026,3.026,0,0,0-.138.788C1056.806,1936.223,1057.882,1936.308,1059.113,1936.254Z" fill="#00337d"/><path d="M1058.8,1918.058c-5.1,2.914-18.527-1.726-18.513-1.995.071-1.427,1.361-10.013,2.876-18.207.931-5.039,3.412-6.921,3.015-7.239a6.127,6.127,0,0,0,4.171,1.079,43.568,43.568,0,0,0,4.626-.517,21.881,21.881,0,0,1,2.013,6.677C1058.147,1908.248,1058.8,1918.058,1058.8,1918.058Z" fill="#dfbfa7"/><path d="M1046.176,1890.611a13.016,13.016,0,0,0,8.681.1l.228.706a14.218,14.218,0,0,1-9.09-.222Z" fill="#d52631"/><path d="M1230.265,1936.71h-4.524a10.989,10.989,0,0,1,.361-1.623,4.447,4.447,0,0,1,.256-.652c.439-.878,3.233-.319,3.233-.319a2.143,2.143,0,0,1,.463,1.071A9.085,9.085,0,0,1,1230.265,1936.71Z" fill="#131a35"/><path d="M1221.961,1867.615s-3.6.633-4.419,2.76-5.419,36.494-5.419,36.494,2.281,1.806,7.174,1.157S1221.961,1867.615,1221.961,1867.615Z" fill="#2053a0"/><path d="M1216.595,1935.283a2.452,2.452,0,0,1-.313,1.427h-8.947a1.542,1.542,0,0,1,1.354-.959,6.787,6.787,0,0,0,3.621-1.676,2.7,2.7,0,0,0,.7-1.27c.42-1.874,3.48.574,3.48.574A15.532,15.532,0,0,1,1216.595,1935.283Z" fill="#131a35"/><path d="M1212.742,1934.372c1,.319,2.91,1.292,4.124.834.785-.3,5.17-12.981,5.454-18.53a14.162,14.162,0,0,1,.225-1.653c.26-1.432.714-3.4,1.237-5.571,1.4-5.818,3.3-13.1,3.26-15.423-.063-3.611-10.76-.757-10.76-.757a38.622,38.622,0,0,0-.883,7.25c-.29,8.512-1.089,22.89-3.261,32.875A.858.858,0,0,0,1212.742,1934.372Z" fill="#131a35"/><path d="M1220.167,1894.042l5.655,40.984a11.066,11.066,0,0,0,4.414.119s1.656-21.8,1.518-27.067,1.188-14.1-.3-15.075S1220.167,1894.042,1220.167,1894.042Z" fill="#003f8b"/><path d="M1232.165,1869.493s-5.943-3.843-10.205-1.877a8.006,8.006,0,0,0-2.009,1.8c-1.541,1.7-4.551,28.667-4.551,28.667s8.545,2.9,16.764-.982Z" fill="#fff"/><path d="M1221.624,1867.518s-6.016,2.466-6.831,4.36a115.5,115.5,0,0,0-3.463,14.892c0,1.364,4.611.3,5.354-1.9.617-1.828,2.7-7.44,3.792-10.99Z" fill="#2053a0"/><path d="M1222.867,1869.4a6.769,6.769,0,0,0,4.655-.948,13.367,13.367,0,0,1-.992-3.5c-.006-.041-.01-.082-.014-.12a3.508,3.508,0,0,1-.016-.8h-3.4s-.929.425-.929.718v.45c-.007.39-.022.731-.042,1.024a9.439,9.439,0,0,1-.174,1.4S1221.544,1869.136,1222.867,1869.4Z" fill="#ee8f8f"/><path d="M1222.134,1866.214a4.694,4.694,0,0,0,4.4-1.269c.047-.052.072-.082.072-.082a.862.862,0,0,0-.086-.038,7.975,7.975,0,0,0-4.344.365C1222.17,1865.58,1222.154,1865.921,1222.134,1866.214Z" fill="#e17678"/><path d="M1227.375,1863.464c-.46,2.474-3.653,2.393-5.032,2.237-.388-.043-.633-.092-.633-.092-.438-.117-.681-.806-.795-1.71a14.037,14.037,0,0,1,.361-5.082c.454-1.01,1.31-2.1,4.525-1.314S1227.965,1860.3,1227.375,1863.464Z" fill="#ee8f8f"/><path d="M1221.156,1857.436a7.334,7.334,0,0,1,2.218-1.809,5.359,5.359,0,0,1,4.154.035c2.626,1.155,3.311,3.163,1.919,6.293-1.471,3.309-2.874,2.937-2.874,2.937s.3-.185.271-1.216a1.1,1.1,0,0,0-.006-.149.688.688,0,0,1,.219-.564c.326-.291.485-1.171.211-1.416-.33-.3-.792.063-.939.339a.4.4,0,0,1-.547.146l-.029-.019c-.818-.516-.287-1.55-1.067-2.182s-2.366-.1-3.537-.605C1219.614,1858.652,1220.825,1857.9,1221.156,1857.436Z" fill="#131a35"/><path d="M1220.791,1909.4q.777.2,1.539.327c.45.077.9.134,1.347.172a21.918,21.918,0,0,0,8.083-.993q1.009-.288,2.089-.654c.076-.026-.2-7.921-.512-16.066-.032-.841-.065-1.685-.1-2.523-.015-.355-.028-.708-.042-1.061-.286-7.2-.569-13.708-.628-14.059-.137-.792-.264-1.468-.4-2.053a5.206,5.206,0,0,0-2.014-3.448c-.107-.081-.988-.525-1.765-.912l-1.215-.6h0a3.4,3.4,0,0,0-.885,1.536,55.66,55.66,0,0,0-1.674,5.58v.009h0c-.285,1.121-.49,1.995-.549,2.245-.1.423-.23,1.242-.384,2.352-.21,1.51-.459,3.562-.723,5.889-.027.239-.055.481-.082.725-.031.28-.063.563-.094.847-.01.092-.021.183-.03.275-.1.921-.2,1.873-.307,2.84-.085.8-1.3,1.376-1.38,2.189-.048.477-.149,4.882-.279,6.288C1220.688,1899.309,1220.757,1908.923,1220.791,1909.4Z" fill="#5279bb"/><path d="M1229.561,1877.443c0,.017.206,7.284-5.261,8.167s-1.834,1.116-1.834,1.116,10.286-.437,10.456-.709S1229.561,1877.443,1229.561,1877.443Z" fill="#2053a0"/><path d="M1224.943,1888.73s.1.073.3.2l.01.006a25.649,25.649,0,0,0,6.913,2.957c.378.1.77.2,1.172.289-.032-.841-.065-1.685-.1-2.523a10.314,10.314,0,0,0,1.354-.188c-.014-.111-.029-.221-.044-.332-.458-.188-.914-.37-1.353-.541-.358-.14-.7-.274-1.032-.4-1.48-.562-2.578-.943-2.578-.943l-4.382,1.388Z" fill="#2053a0"/><path d="M1223.783,1888.608s.563.141,1.459.321h.009a35.866,35.866,0,0,0,6.914.772c.367,0,.726-.018,1.075-.045a10.294,10.294,0,0,0,1.354-.188,4.212,4.212,0,0,0,2.165-1.021c3.692-3.761-2.015-17.258-3.215-18.572-1.4-1.533-3.958-2.071-5.369-2.256l-.17-.022c-.5-.059-.815-.071-.833-.072h0l.3.96c.072.234.155.5.247.806.867,2.84,2.541,8.422,3.278,11.569a7.984,7.984,0,0,1,.349,2.224c-.288,1.075-3.271,1.627-5.161,1.873-.788.1-1.386.149-1.521.16h-.028l-.109.448-.262,1.075-.257,1.056Z" fill="#5279bb"/><path d="M1213.485,1895.077l12.679-.534-2.573-15.8-12.679.534Z" fill="#dfbfa7"/><path d="M1224.632,1885.121s-2.468-.172-2.592.4c-.289,1.341,2.123,2.442,2.9,2.367S1225.2,1885.031,1224.632,1885.121Z" fill="#ee8f8f"/><path d="M1211.606,1882.484s2.362-.738,2.615-.207c.591,1.238-1.5,2.867-2.278,2.975S1211.033,1882.528,1211.606,1882.484Z" fill="#ee8f8f"/><path d="M1226.915,1866.734a2.944,2.944,0,0,1,1.692.95s-4.015,7.031-4,6.968S1225.922,1867.6,1226.915,1866.734Z" fill="#2053a0"/><path d="M1222.081,1866.829a2.962,2.962,0,0,0-1.146,1.172l-.462,5.884s.986-4.318,1.488-6.269A3.381,3.381,0,0,0,1222.081,1866.829Z" fill="#2053a0"/><path d="M1219.39,1878.917a.578.578,0,0,0-.678-.388c-.577.051-3.82.21-3.82.21s-.626-.01-.568.391Z" fill="#df4143"/><path d="M976.009,1884.586c-.8,0-1.5.728-1.872,1.8H971.01a20.578,20.578,0,0,0-4.755-11.491l2.208-2.208a2.278,2.278,0,0,0,2.594-.052c.849-.848.4-2.675-1.006-4.079s-3.23-1.855-4.079-1.007a2.278,2.278,0,0,0-.052,2.6l-2.208,2.207a20.574,20.574,0,0,0-11.49-4.754v-3.127c1.071-.376,1.8-1.069,1.8-1.872,0-1.2-1.611-2.172-3.6-2.172s-3.6.973-3.6,2.172c0,.8.728,1.5,1.8,1.872v3.127a20.571,20.571,0,0,0-11.49,4.754l-2.208-2.207a2.276,2.276,0,0,0-.052-2.6c-.847-.848-2.674-.4-4.077,1.007s-1.856,3.231-1.008,4.079a2.278,2.278,0,0,0,2.594.052l2.207,2.208a20.57,20.57,0,0,0-4.754,11.491h-3.127c-.376-1.071-1.069-1.8-1.871-1.8-1.2,0-2.174,1.611-2.174,3.6s.972,3.6,2.174,3.6c.8,0,1.5-.727,1.871-1.8h3.127a20.568,20.568,0,0,0,4.754,11.491l-2.207,2.208a2.278,2.278,0,0,0-2.594.052c-.849.848-.4,2.675,1.008,4.079s3.23,1.855,4.077,1.007a2.275,2.275,0,0,0,.052-2.594l2.208-2.208a20.561,20.561,0,0,0,11.49,4.755v3.127c-1.07.376-1.8,1.069-1.8,1.872,0,1.2,1.61,2.173,3.6,2.173s3.6-.973,3.6-2.173c0-.8-.728-1.5-1.8-1.872v-3.127a20.558,20.558,0,0,0,11.49-4.755l2.208,2.208a2.276,2.276,0,0,0,.052,2.594c.849.849,2.675.4,4.079-1.007s1.855-3.231,1.006-4.079a2.276,2.276,0,0,0-2.594-.052l-2.208-2.208a20.573,20.573,0,0,0,4.755-11.491h3.127c.376,1.071,1.069,1.8,1.872,1.8,1.2,0,2.172-1.61,2.172-3.6S977.208,1884.586,976.009,1884.586Z" fill="#bde4b7"/><path d="M1241.061,1806.982c-.679,0-1.267.617-1.585,1.523h-2.649a17.426,17.426,0,0,0-4.027-9.733l1.87-1.87a1.928,1.928,0,0,0,2.2-.044c.719-.719.338-2.265-.852-3.455s-2.737-1.571-3.456-.853a1.928,1.928,0,0,0-.042,2.2l-1.871,1.87a17.423,17.423,0,0,0-9.732-4.027v-2.648c.906-.318,1.522-.906,1.522-1.586,0-1.016-1.364-1.84-3.045-1.84s-3.046.824-3.046,1.84c0,.68.616,1.267,1.523,1.586v2.648a17.426,17.426,0,0,0-9.733,4.027l-1.87-1.87a1.931,1.931,0,0,0-.044-2.2c-.718-.718-2.265-.336-3.455.853s-1.572,2.736-.853,3.455a1.928,1.928,0,0,0,2.2.044l1.871,1.87a17.42,17.42,0,0,0-4.028,9.733h-2.648c-.32-.907-.906-1.523-1.585-1.523-1.017,0-1.84,1.365-1.84,3.046s.823,3.046,1.84,3.046c.679,0,1.266-.616,1.585-1.523h2.642a17.423,17.423,0,0,0,4.028,9.734l-1.87,1.87a1.928,1.928,0,0,0-2.2.044c-.719.719-.337,2.265.853,3.455s2.737,1.571,3.455.852a1.93,1.93,0,0,0,.044-2.2l1.87-1.869a17.419,17.419,0,0,0,9.733,4.027v2.648c-.906.319-1.523.906-1.523,1.586,0,1.016,1.364,1.841,3.046,1.841s3.046-.824,3.046-1.841c0-.68-.617-1.266-1.523-1.586v-2.648a17.419,17.419,0,0,0,9.733-4.027l1.87,1.869a1.926,1.926,0,0,0,.043,2.2c.719.719,2.266.337,3.455-.852s1.571-2.736.852-3.455a1.927,1.927,0,0,0-2.2-.044l-1.87-1.87a17.431,17.431,0,0,0,4.027-9.734h2.649c.319.907.906,1.523,1.585,1.523,1.016,0,1.84-1.364,1.84-3.046S1242.077,1806.982,1241.061,1806.982Z" fill="#bde4b7"/><path d="M1302.527,1851.246c-.384,0-.717.348-.9.861h-1.5a9.86,9.86,0,0,0-2.276-5.5l1.057-1.057a1.089,1.089,0,0,0,1.242-.024c.406-.406.19-1.28-.482-1.952s-1.546-.889-1.952-.482a1.088,1.088,0,0,0-.025,1.242l-1.057,1.056a9.853,9.853,0,0,0-5.5-2.275v-1.5c.512-.18.861-.512.861-.9,0-.574-.771-1.04-1.722-1.04s-1.722.466-1.722,1.04c0,.384.348.716.861.9v1.5a9.853,9.853,0,0,0-5.5,2.275l-1.057-1.056a1.09,1.09,0,0,0-.024-1.242c-.406-.406-1.281-.19-1.952.482s-.889,1.547-.483,1.952a1.09,1.09,0,0,0,1.243.024l1.057,1.057a9.856,9.856,0,0,0-2.278,5.5h-1.5c-.18-.512-.512-.861-.9-.861-.575,0-1.041.771-1.041,1.722s.466,1.722,1.041,1.722c.384,0,.716-.349.9-.861h1.5a9.856,9.856,0,0,0,2.278,5.5l-1.057,1.057a1.09,1.09,0,0,0-1.243.024c-.406.406-.19,1.28.483,1.953s1.546.888,1.952.482a1.09,1.09,0,0,0,.024-1.242l1.057-1.057a9.855,9.855,0,0,0,5.5,2.276v1.5c-.512.18-.861.513-.861.9,0,.574.771,1.041,1.722,1.041s1.722-.467,1.722-1.041c0-.384-.348-.716-.861-.9v-1.5a9.848,9.848,0,0,0,5.5-2.276l1.057,1.057a1.088,1.088,0,0,0,.025,1.242c.406.407,1.28.19,1.952-.482s.888-1.547.482-1.953a1.092,1.092,0,0,0-1.242-.024l-1.057-1.057a9.855,9.855,0,0,0,2.276-5.5h1.5c.18.512.512.862.9.862.575,0,1.041-.771,1.041-1.722S1303.1,1851.246,1302.527,1851.246Z" fill="#bde4b7"/><path d="M1058.3,1800.677c-.384,0-.717.349-.9.861h-1.5a9.847,9.847,0,0,0-2.276-5.5l1.057-1.057a1.088,1.088,0,0,0,1.242-.025c.406-.406.191-1.28-.482-1.952s-1.547-.888-1.953-.482a1.092,1.092,0,0,0-.025,1.242l-1.057,1.056a9.852,9.852,0,0,0-5.5-2.275v-1.5c.512-.18.86-.512.86-.9,0-.574-.771-1.04-1.722-1.04s-1.721.466-1.721,1.04c0,.384.348.716.861.9v1.5a9.852,9.852,0,0,0-5.5,2.275l-1.057-1.056a1.09,1.09,0,0,0-.024-1.242c-.406-.406-1.281-.19-1.953.482s-.888,1.547-.482,1.952a1.088,1.088,0,0,0,1.242.025l1.057,1.057a9.857,9.857,0,0,0-2.278,5.5h-1.5c-.18-.512-.512-.861-.9-.861-.575,0-1.041.771-1.041,1.722s.466,1.722,1.041,1.722c.384,0,.716-.348.9-.861h1.5a9.863,9.863,0,0,0,2.278,5.5l-1.057,1.057a1.088,1.088,0,0,0-1.242.025c-.406.406-.19,1.28.482,1.953s1.547.887,1.953.481a1.088,1.088,0,0,0,.024-1.241l1.057-1.057a9.847,9.847,0,0,0,5.5,2.276v1.5c-.513.18-.861.511-.861.9,0,.574.77,1.04,1.721,1.04s1.722-.466,1.722-1.04c0-.385-.348-.716-.86-.9v-1.5a9.844,9.844,0,0,0,5.5-2.276l1.057,1.057a1.087,1.087,0,0,0,.025,1.241c.406.406,1.28.19,1.953-.481s.888-1.548.482-1.953a1.088,1.088,0,0,0-1.242-.025l-1.057-1.057a9.861,9.861,0,0,0,2.276-5.5h1.5c.18.513.512.861.9.861.574,0,1.041-.771,1.041-1.722S1058.872,1800.677,1058.3,1800.677Z" fill="#bde4b7"/><path d="M1295.592,1800.393c-.166,0-.31.151-.388.373h-.649a4.281,4.281,0,0,0-.988-2.386l.459-.458a.473.473,0,0,0,.539-.011c.176-.176.082-.555-.209-.847s-.671-.386-.847-.209a.471.471,0,0,0-.01.539l-.459.458a4.272,4.272,0,0,0-2.386-.987v-.65c.222-.078.374-.222.374-.388,0-.249-.334-.451-.747-.451s-.747.2-.747.451c0,.167.151.311.373.388v.65a4.27,4.27,0,0,0-2.385.987l-.458-.458a.473.473,0,0,0-.011-.539c-.177-.177-.555-.083-.847.209s-.385.67-.209.847a.473.473,0,0,0,.539.011l.458.458a4.276,4.276,0,0,0-.987,2.386h-.649c-.078-.222-.222-.373-.389-.373-.249,0-.451.334-.451.747s.2.747.451.747c.167,0,.311-.151.389-.374h.649a4.273,4.273,0,0,0,.987,2.386l-.458.458a.473.473,0,0,0-.539.011c-.177.176-.083.555.209.847s.67.385.847.209a.474.474,0,0,0,.011-.539l.458-.458a4.265,4.265,0,0,0,2.385.988v.649c-.222.079-.373.222-.373.388,0,.25.334.451.747.451s.747-.2.747-.451c0-.167-.151-.31-.374-.388v-.649a4.268,4.268,0,0,0,2.386-.988l.459.458a.471.471,0,0,0,.01.539c.176.176.555.082.847-.209s.385-.671.209-.847a.472.472,0,0,0-.539-.011l-.459-.458a4.281,4.281,0,0,0,.988-2.386h.649c.078.222.222.374.388.374.25,0,.451-.334.451-.747S1295.84,1800.393,1295.592,1800.393Z" fill="#bde4b7"/><path d="M1377.592,1903.227c-.166,0-.31.151-.388.373h-.649a4.281,4.281,0,0,0-.988-2.386l.459-.458a.473.473,0,0,0,.539-.011c.176-.176.082-.555-.209-.847s-.671-.386-.847-.209a.471.471,0,0,0-.01.539l-.459.458a4.273,4.273,0,0,0-2.386-.987v-.65c.222-.078.374-.222.374-.388,0-.249-.334-.451-.747-.451s-.747.2-.747.451c0,.167.151.311.373.388v.65a4.27,4.27,0,0,0-2.385.987l-.458-.458a.473.473,0,0,0-.011-.539c-.177-.177-.555-.083-.847.209s-.385.67-.209.847a.473.473,0,0,0,.539.011l.458.458a4.276,4.276,0,0,0-.987,2.386h-.649c-.078-.222-.222-.373-.389-.373-.249,0-.451.334-.451.747s.2.747.451.747c.167,0,.311-.151.389-.374h.649a4.273,4.273,0,0,0,.987,2.386l-.458.458a.473.473,0,0,0-.539.011c-.177.176-.083.555.209.847s.67.385.847.209a.475.475,0,0,0,.011-.539l.458-.458a4.265,4.265,0,0,0,2.385.988v.649c-.222.079-.373.222-.373.388,0,.25.334.451.747.451s.747-.2.747-.451c0-.167-.151-.31-.374-.388v-.649a4.268,4.268,0,0,0,2.386-.988l.459.458a.471.471,0,0,0,.01.539c.176.176.555.082.847-.209s.385-.671.209-.847a.473.473,0,0,0-.539-.011l-.459-.458a4.281,4.281,0,0,0,.988-2.386h.649c.078.222.222.374.388.374.25,0,.451-.334.451-.747S1377.84,1903.227,1377.592,1903.227Z" fill="#bde4b7"/></g></g><rect width="610" height="2.858" transform="translate(503 3004.143)" fill="#797878"/><path d="M-7169.058-8763.345l1.126,1.166.08.057a1.475,1.475,0,0,0,.86.2,13.158,13.158,0,0,1,1.775,0s-.437,1.979-.9,2.212-3.171-.349-3.171-.349l.96-1.863Z" transform="translate(7869 11700)" fill="#fff"/><path d="M-7029.577-8762.455c.044-.313,3.432,1.616,3.425,1.725a.081.081,0,0,0,.092.1s.378,2.276-1.7,2.008-1.813-.381-1.813-.381a1.826,1.826,0,0,1-1.3-.939c-.425-.829-.05-.081,1.024-.147s.715-.91.715-1.4S-7029.621-8762.142-7029.577-8762.455Z" transform="translate(7869 11700)" fill="#fff"/><path d="M-6998.707-8769.313c.537-.31,1.4,1.057,4.973-.617s.211,0,.211,0-1.706,1.008-1.706,1.3v2.291s-2.341.731-3.218-.1S-6999.243-8769-6998.707-8769.313Z" transform="translate(7869 11700)" fill="#fff"/></g></svg>